<svg width="59" height="51" viewBox="0 0 59 51" fill="none" xmlns="http://www.w3.org/2000/svg">
<path fill-rule="evenodd" clip-rule="evenodd" d="M38.373 42.0062C45.3309 42.0062 50.9136 37.0793 53.1943 28.8666C48.3087 20.6539 41.1633 15.7271 34.2054 15.7271H34.2127C27.2548 15.7271 21.6721 20.6539 19.3914 28.8666C24.277 37.0793 31.4224 42.0062 38.3803 42.0062H38.373Z" fill="#FFBF08"/>
<path fill-rule="evenodd" clip-rule="evenodd" d="M35.9157 25.7037C36.4904 29.3271 33.9722 32.2637 30.2929 32.2637C26.6136 32.2637 23.1661 29.3271 22.5915 25.7037C22.0165 22.0781 24.5326 19.1416 28.2119 19.1416C31.8912 19.1416 35.3408 22.0781 35.9157 25.7037Z" stroke="#130F26" stroke-width="2" stroke-linecap="round" stroke-linejoin="round"/>
<path fill-rule="evenodd" clip-rule="evenodd" d="M31.653 40.8568C39.6775 40.8568 46.1159 35.1747 48.7462 25.7031C43.1117 16.2315 34.8709 10.5493 26.8464 10.5493H26.8549C18.8304 10.5493 12.3919 16.2315 9.76166 25.7031C15.3961 35.1747 23.6369 40.8568 31.6614 40.8568H31.653Z" stroke="#130F26" stroke-width="2" stroke-linecap="round" stroke-linejoin="round"/>
</svg>
