<svg width="25" height="24" viewBox="0 0 25 24" fill="none" xmlns="http://www.w3.org/2000/svg">
<path opacity="0.4" d="M16.2975 10.8096L19.9967 10.4824C20.8269 10.4824 21.5 11.1621 21.5 12.0003C21.5 12.8386 20.8269 13.5182 19.9967 13.5182L16.2975 13.1911C15.6463 13.1911 15.1183 12.6579 15.1183 12.0003C15.1183 11.3416 15.6463 10.8096 16.2975 10.8096Z" fill="#1E1E1E"/>
<path d="M3.87534 10.8698C3.93316 10.8115 4.14915 10.5647 4.35206 10.3598C5.53568 9.07656 8.62619 6.97815 10.2429 6.33596C10.4884 6.23352 11.1091 6.01542 11.4418 6C11.7592 6 12.0625 6.0738 12.3516 6.2192C12.7127 6.42299 13.0007 6.74463 13.16 7.12355C13.2614 7.38572 13.4207 8.17331 13.4207 8.18763C13.5789 9.04792 13.665 10.4469 13.665 11.9934C13.665 13.465 13.5789 14.8067 13.449 15.6813C13.4349 15.6967 13.2756 16.6738 13.1021 17.0086C12.7847 17.6211 12.164 18 11.4996 18H11.4418C11.0087 17.9857 10.0989 17.6057 10.0989 17.5924C8.56837 16.9502 5.55096 14.9532 4.33788 13.6258C4.33788 13.6258 3.99534 13.2844 3.84698 13.0718C3.61571 12.7656 3.50007 12.3866 3.50007 12.0077C3.50007 11.5847 3.62989 11.1915 3.87534 10.8698Z" fill="#1E1E1E"/>
</svg>
