<svg width="24" height="25" viewBox="0 0 24 25" fill="none" xmlns="http://www.w3.org/2000/svg">
<path opacity="0.4" d="M15.7975 11.3096L19.4967 10.9824C20.3269 10.9824 21 11.6621 21 12.5003C21 13.3386 20.3269 14.0182 19.4967 14.0182L15.7975 13.6911C15.1463 13.6911 14.6183 13.1579 14.6183 12.5003C14.6183 11.8416 15.1463 11.3096 15.7975 11.3096Z" fill="#FFBF08"/>
<path d="M3.37436 11.3698C3.43218 11.3115 3.64818 11.0647 3.85108 10.8598C5.03471 9.57656 8.12521 7.47815 9.74192 6.83596C9.98737 6.73352 10.6081 6.51542 10.9408 6.5C11.2583 6.5 11.5615 6.5738 11.8506 6.7192C12.2117 6.92299 12.4997 7.24463 12.659 7.62355C12.7604 7.88572 12.9197 8.67331 12.9197 8.68763C13.0779 9.54792 13.1641 10.9469 13.1641 12.4934C13.1641 13.965 13.0779 15.3067 12.9481 16.1813C12.9339 16.1967 12.7746 17.1738 12.6012 17.5086C12.2837 18.1211 11.663 18.5 10.9986 18.5H10.9408C10.5077 18.4857 9.59792 18.1057 9.59792 18.0924C8.0674 17.4502 5.04998 15.4532 3.8369 14.1258C3.8369 14.1258 3.49436 13.7844 3.346 13.5718C3.11473 13.2656 2.99909 12.8866 2.99909 12.5077C2.99909 12.0847 3.12891 11.6915 3.37436 11.3698Z" fill="#FFBF08"/>
</svg>
