<svg width="24" height="24" viewBox="0 0 24 24" fill="none" xmlns="http://www.w3.org/2000/svg">
<path fill-rule="evenodd" clip-rule="evenodd" d="M7.75004 6.39453C7.75004 5.15189 8.7574 4.14453 10 4.14453C11.2427 4.14453 12.25 5.15189 12.25 6.39453V8.94438C12.4099 8.90325 12.5774 8.88137 12.75 8.88137C13.5553 8.88137 14.2494 9.35728 14.5665 10.0432C14.8236 9.90592 15.1164 9.82874 15.4251 9.82874C16.1609 9.82874 16.795 10.2642 17.0837 10.8915C17.2683 10.8169 17.4692 10.7761 17.6781 10.7761C18.8251 10.7761 19.7441 11.7396 19.6698 12.8938C19.5853 14.2075 19.4361 16.2572 19.2441 17.7779C19.1753 18.3237 18.9531 18.9184 18.7215 19.4302C18.02 20.9809 16.416 21.7498 14.8517 21.7498H12.7697C10.4766 21.7498 8.34041 20.5857 7.09743 18.6588L4.03839 13.9165C3.43148 12.9757 3.93794 11.7174 5.02741 11.4594C5.75175 11.2879 6.51485 11.4489 7.1081 11.8985L7.75004 12.385V6.39453ZM12.25 10.8814V11.9998C12.25 12.414 11.9143 12.7498 11.5 12.7498C11.0858 12.7498 10.75 12.414 10.75 11.9998V6.39453C10.75 5.98032 10.4143 5.64453 10 5.64453C9.58583 5.64453 9.25004 5.98032 9.25004 6.39453V13.492C9.25004 14.277 8.35189 14.7233 7.72623 14.2491L6.20207 13.094C5.96572 12.9148 5.66169 12.8507 5.37311 12.919C5.29135 12.9384 5.25335 13.0328 5.29889 13.1034L8.35793 17.8456C9.3247 19.3444 10.9862 20.2498 12.7697 20.2498H14.8517C15.9706 20.2498 16.9504 19.706 17.3549 18.812C17.5678 18.3413 17.7155 17.9103 17.7559 17.5901C17.9416 16.1192 18.0884 14.1098 18.1729 12.7974C18.1909 12.5174 17.9683 12.2761 17.6781 12.2761C17.6374 12.2761 17.6022 12.3046 17.5938 12.3445L17.4195 13.1701C17.2101 14.162 15.75 14.0095 15.75 12.9958V11.6537C15.75 11.4742 15.6045 11.3287 15.4251 11.3287C15.2643 11.3287 15.1277 11.4463 15.1037 11.6053L14.9405 12.6875C14.7837 13.7274 13.25 13.6122 13.25 12.5607V10.8814C13.25 10.6052 13.0262 10.3814 12.75 10.3814C12.4739 10.3814 12.25 10.6052 12.25 10.8814Z" fill="#222628"/>
<path fill-rule="evenodd" clip-rule="evenodd" d="M7.19406 5.17913C7.19312 5.18144 7.19216 5.18374 7.1912 5.18603C7.03189 5.56424 6.59738 5.74462 6.2165 5.58906C5.83304 5.43244 5.64914 4.99462 5.80575 4.61116L6.49991 4.89467C5.80575 4.61116 5.80593 4.61073 5.8061 4.6103L5.80648 4.6094L5.80728 4.60745L5.80912 4.60303L5.81378 4.59208C5.81733 4.58387 5.82177 4.57382 5.82713 4.56207C5.83785 4.53857 5.85231 4.5082 5.87085 4.47195C5.90787 4.39952 5.96143 4.30306 6.03424 4.19073C6.17958 3.96652 6.40408 3.67534 6.73019 3.38619C7.39448 2.79719 8.44431 2.25 10.0001 2.25C11.5558 2.25 12.6057 2.79719 13.27 3.38619C13.5961 3.67534 13.8206 3.96652 13.9659 4.19073C14.0387 4.30306 14.0923 4.39952 14.1293 4.47195C14.1478 4.5082 14.1623 4.53857 14.173 4.56207C14.1784 4.57382 14.1828 4.58387 14.1864 4.59208L14.191 4.60303L14.1929 4.60745L14.1937 4.6094L14.194 4.6103C14.1942 4.61073 14.1944 4.61116 13.5001 4.89474L14.1944 4.61116C14.351 4.99462 14.1671 5.43244 13.7837 5.58906C13.4028 5.74462 12.9683 5.56424 12.809 5.18603C12.809 5.18612 12.809 5.1862 12.8091 5.18627C12.8095 5.18718 12.8095 5.18727 12.8092 5.18652M12.809 5.18603C12.8088 5.18571 12.8086 5.18532 12.8084 5.18485C12.8065 5.18059 12.8016 5.17025 12.7937 5.1547C12.7778 5.12351 12.7496 5.07194 12.7072 5.00664C12.6223 4.87558 12.4829 4.69308 12.2748 4.50854C11.8706 4.15018 11.1705 3.75 10.0001 3.75C8.82969 3.75 8.12952 4.15018 7.72535 4.50854C7.51722 4.69308 7.37788 4.87558 7.29293 5.00664C7.2506 5.07194 7.2224 5.12351 7.20646 5.1547C7.1985 5.17025 7.19368 5.18059 7.19173 5.18485C7.19152 5.18532 7.19134 5.18571 7.1912 5.18603C7.19069 5.18716 7.19062 5.18734 7.19097 5.18652L7.19217 5.18369L7.19316 5.18133L7.19375 5.1799L7.19406 5.17913" fill="#222628"/>
</svg>
