<svg width="60" height="60" viewBox="0 0 60 60" fill="none" xmlns="http://www.w3.org/2000/svg">
<path d="M24.125 34.5L28.15 37.625C28.675 38.15 29.85 38.3998 30.625 38.3998H35.575C37.125 38.3998 38.825 37.2249 39.225 35.6749L42.35 26.1998C43 24.3748 41.825 22.8248 39.875 22.8248H34.675C33.9 22.8248 33.25 22.1749 33.375 21.2749L34.025 17.1248C34.275 15.9498 33.5 14.6497 32.325 14.2747C31.275 13.8747 29.975 14.3997 29.475 15.1747L24.15 23.0998" stroke="#FFBF08" stroke-width="4" stroke-miterlimit="10"/>
<path d="M17.5 34.5V21.7748C17.5 19.9498 18.275 19.2998 20.1 19.2998H21.4C23.225 19.2998 24 19.9498 24 21.7748V34.5C24 36.325 23.225 36.975 21.4 36.975H20.1C18.275 36.975 17.5 36.325 17.5 34.5Z" stroke="#FFBF08" stroke-width="4" stroke-linecap="round" stroke-linejoin="round"/>
<path d="M45 47.1498H43.1C41.1 47.1498 39.2 47.9248 37.8 49.3248L33.525 53.55C31.575 55.475 28.4 55.475 26.45 53.55L22.175 49.3248C20.775 47.9248 18.85 47.1498 16.875 47.1498H15C10.85 47.1498 7.5 43.8249 7.5 39.7249V12.4498C7.5 8.34983 10.85 5.0249 15 5.0249H45C49.15 5.0249 52.5 8.34983 52.5 12.4498V39.7249C52.5 43.7999 49.15 47.1498 45 47.1498Z" stroke="white" stroke-width="4" stroke-miterlimit="10" stroke-linecap="round" stroke-linejoin="round"/>
</svg>
