<svg width="60" height="60" viewBox="0 0 60 60" fill="none" xmlns="http://www.w3.org/2000/svg">
<path d="M47.5 22.5C47.5 26.125 46.425 29.45 44.575 32.225C41.875 36.225 37.6 39.05 32.625 39.775C31.775 39.925 30.9 40 30 40C29.1 40 28.225 39.925 27.375 39.775C22.4 39.05 18.125 36.225 15.425 32.225C13.575 29.45 12.5 26.125 12.5 22.5C12.5 12.825 20.325 5 30 5C39.675 5 47.5 12.825 47.5 22.5Z" stroke="white" stroke-width="4" stroke-linecap="round" stroke-linejoin="round"/>
<path d="M53.125 46.175L49 47.15C48.075 47.375 47.35 48.075 47.15 49L46.275 52.675C45.8 54.675 43.25 55.275 41.925 53.7L30 40L18.075 53.725C16.75 55.3 14.2 54.7 13.725 52.7L12.85 49.025C12.625 48.1 11.9 47.375 11 47.175L6.87495 46.2C4.97495 45.75 4.29995 43.375 5.67495 42L15.425 32.25C18.125 36.25 22.4 39.075 27.375 39.8C28.225 39.95 29.1 40.025 30 40.025C30.9 40.025 31.775 39.95 32.625 39.8C37.6 39.075 41.875 36.25 44.575 32.25L54.325 42C55.7 43.35 55.025 45.725 53.125 46.175Z" stroke="white" stroke-width="4" stroke-linecap="round" stroke-linejoin="round"/>
<path d="M31.4501 14.95L32.9251 17.9C33.1251 18.3 33.6501 18.7 34.1251 18.775L36.8001 19.225C38.5001 19.5 38.9001 20.75 37.6751 21.975L35.6001 24.05C35.2501 24.4 35.0501 25.075 35.1751 25.575L35.7751 28.15C36.2501 30.175 35.1751 30.9749 33.3751 29.8999L30.8751 28.425C30.4251 28.15 29.6751 28.15 29.2251 28.425L26.7251 29.8999C24.9251 30.9499 23.8501 30.175 24.3251 28.15L24.9251 25.575C25.0251 25.1 24.8501 24.4 24.5001 24.05L22.4251 21.975C21.2001 20.75 21.6001 19.525 23.3001 19.225L25.9751 18.775C26.4251 18.7 26.9501 18.3 27.1501 17.9L28.6251 14.95C29.3501 13.35 30.6501 13.35 31.4501 14.95Z" stroke="#FFBF08" stroke-width="4" stroke-linecap="round" stroke-linejoin="round"/>
</svg>
