<svg width="24" height="24" viewBox="0 0 24 24" fill="none" xmlns="http://www.w3.org/2000/svg">
<path fill-rule="evenodd" clip-rule="evenodd" d="M15.49 2.4192C14.6194 2.70682 13.8155 3.17107 13.1296 3.78476L6.73181 9.50856L7.88041 13.7952L9.62435 14.258L16.2704 14.7393C17.21 14.8074 18.1535 14.7262 19.066 14.4996L15.49 2.4192ZM8.94353 15.6292L7.26929 15.185L6.04986 15.5117L8.0346 20.0696C8.08563 20.1868 8.21683 20.2466 8.33876 20.2083L10.2457 19.609C10.3846 19.5653 10.4569 19.4128 10.4029 19.2776L8.94353 15.6292ZM4.58476 15.9043L3.92074 16.0822C2.98717 16.3323 2.02758 15.7783 1.77744 14.8448L0.914706 11.625C0.664558 10.6914 1.21858 9.73185 2.15214 9.4817L5.52117 8.57898L12.1294 2.66685C13.1203 1.78034 14.3122 1.14854 15.6021 0.826088C16.1126 0.698478 16.633 0.99575 16.7823 1.50029L20.6338 14.5114C20.7981 15.0666 20.4832 15.6502 19.9289 15.8175C18.7094 16.1858 17.4326 16.3274 16.162 16.2354L10.6416 15.8356L11.7956 18.7205C12.174 19.6665 11.6674 20.7345 10.6955 21.04L8.78849 21.6393C7.93495 21.9075 7.01653 21.4888 6.65933 20.6685L4.58476 15.9043ZM5.35765 10.1757L2.54037 10.9306C2.407 10.9663 2.32786 11.1034 2.36359 11.2368L3.22632 14.4565C3.26206 14.5899 3.39915 14.669 3.53251 14.6333L6.34979 13.8784L5.35765 10.1757Z" fill="#222628"/>
<path fill-rule="evenodd" clip-rule="evenodd" d="M17.1372 6.80489C17.0536 6.39921 17.3146 6.00252 17.7203 5.91885L17.8718 6.65339C17.7203 5.91885 17.7199 5.91893 17.7203 5.91885L17.7217 5.91856L17.7233 5.91823L17.7272 5.91746L17.7371 5.91553L17.7658 5.91031C17.7888 5.90631 17.8193 5.90138 17.8566 5.89624C17.9308 5.88598 18.033 5.87471 18.1556 5.86848C18.3976 5.85621 18.7364 5.86267 19.1044 5.94587C19.8727 6.11962 20.7661 6.63971 21.1025 7.89528C21.4389 9.15085 20.9253 10.0479 20.3468 10.5826C20.0697 10.8386 19.7795 11.0136 19.5638 11.124C19.4545 11.1799 19.3604 11.2212 19.2909 11.2495C19.2561 11.2637 19.2272 11.2747 19.2053 11.2827L19.1779 11.2925L19.1683 11.2958L19.1646 11.297L19.163 11.2976C19.1627 11.2977 19.1616 11.298 18.9256 10.5862L19.1616 11.298C18.7685 11.4284 18.3441 11.2154 18.2137 10.8222C18.0838 10.4306 18.2946 10.0081 18.6848 9.87586L18.6893 9.87422C18.6957 9.87187 18.7082 9.86718 18.7257 9.86007C18.7608 9.84577 18.815 9.82216 18.8806 9.78859C19.0148 9.71994 19.1807 9.61778 19.3287 9.48095C19.6004 9.22987 19.8131 8.87858 19.6536 8.28351C19.4942 7.68843 19.1344 7.49052 18.7735 7.40893C18.5769 7.36447 18.3822 7.35892 18.2317 7.36656C18.1581 7.37029 18.0993 7.37695 18.0617 7.38214C18.043 7.38472 18.0299 7.38689 18.0231 7.38807L18.0184 7.38892C17.6144 7.46951 17.2206 7.20894 17.1372 6.80489Z" fill="#222628"/>
</svg>
