<svg width="71" height="63" viewBox="0 0 71 63" fill="none" xmlns="http://www.w3.org/2000/svg">
<g filter="url(#filter0_f_2762_31721)">
<path d="M52.1152 12.2227H18.8848C16.6069 12.2227 14.7539 14.0757 14.7539 16.3535V41.1387C14.7539 41.8998 15.3698 42.5156 16.1309 42.5156H26.6681L29.0186 44.8661C29.2768 45.1243 29.6265 45.2695 29.9922 45.2695H41.0078C41.3735 45.2695 41.7232 45.1243 41.9813 44.8661L44.3319 42.5156H54.8691C55.6302 42.5156 56.2461 41.8998 56.2461 41.1387V16.3535C56.2461 14.0757 54.3931 12.2227 52.1152 12.2227Z" fill="url(#paint0_linear_2762_31721)"/>
<path d="M57.623 39.7615H43.7617C43.396 39.7615 43.0463 39.9067 42.7882 40.1649L40.4377 42.5154H30.5623L28.2119 40.1649C27.9537 39.9067 27.604 39.7615 27.2383 39.7615H13.377C12.6159 39.7615 12 40.3774 12 41.1384V43.8924C12 47.6884 15.0874 50.7771 18.8848 50.7771H52.1152C55.9126 50.7771 59 47.6884 59 43.8924V41.1384C59 40.3774 58.3841 39.7615 57.623 39.7615ZM31.7241 36.6055C32.1047 36.9842 32.6502 37.0986 33.1334 36.939L38.9774 34.9919C39.179 34.9233 39.3646 34.8091 39.5152 34.6584L50.391 23.7813C50.9289 23.2435 50.9289 22.372 50.391 21.8342L46.4968 17.94C45.959 17.4022 45.0875 17.4022 44.5497 17.94L33.6712 28.8171C33.5206 28.9677 33.405 29.1519 33.3377 29.3549L31.3906 35.1963C31.2266 35.6911 31.3557 36.237 31.7241 36.6055V36.6055ZM21.6387 25.992H29.9922C30.7533 25.992 31.3691 25.3761 31.3691 24.615C31.3691 23.8539 30.7533 23.2381 29.9922 23.2381H21.6387C20.8776 23.2381 20.2617 23.8539 20.2617 24.615C20.2617 25.3761 20.8776 25.992 21.6387 25.992V25.992ZM21.6387 20.4841H29.9922C30.7533 20.4841 31.3691 19.8683 31.3691 19.1072C31.3691 18.3461 30.7533 17.7302 29.9922 17.7302H21.6387C20.8776 17.7302 20.2617 18.3461 20.2617 19.1072C20.2617 19.8683 20.8776 20.4841 21.6387 20.4841V20.4841Z" fill="url(#paint1_linear_2762_31721)"/>
</g>
<path d="M52.1152 8.22266H18.8848C16.6069 8.22266 14.7539 10.0757 14.7539 12.3535V37.1387C14.7539 37.8998 15.3698 38.5156 16.1309 38.5156H26.6681L29.0186 40.8661C29.2768 41.1243 29.6265 41.2695 29.9922 41.2695H41.0078C41.3735 41.2695 41.7232 41.1243 41.9813 40.8661L44.3319 38.5156H54.8691C55.6302 38.5156 56.2461 37.8998 56.2461 37.1387V12.3535C56.2461 10.0757 54.3931 8.22266 52.1152 8.22266Z" fill="url(#paint2_linear_2762_31721)"/>
<path d="M57.623 35.7615H43.7617C43.396 35.7615 43.0463 35.9067 42.7882 36.1649L40.4377 38.5154H30.5623L28.2119 36.1649C27.9537 35.9067 27.604 35.7615 27.2383 35.7615H13.377C12.6159 35.7615 12 36.3774 12 37.1384V39.8924C12 43.6884 15.0874 46.7771 18.8848 46.7771H52.1152C55.9126 46.7771 59 43.6884 59 39.8924V37.1384C59 36.3774 58.3841 35.7615 57.623 35.7615ZM31.7241 32.6055C32.1047 32.9842 32.6502 33.0986 33.1334 32.939L38.9774 30.9919C39.179 30.9233 39.3646 30.8091 39.5152 30.6584L50.391 19.7813C50.9289 19.2435 50.9289 18.372 50.391 17.8342L46.4968 13.94C45.959 13.4022 45.0875 13.4022 44.5497 13.94L33.6712 24.8171C33.5206 24.9677 33.405 25.1519 33.3377 25.3549L31.3906 31.1963C31.2266 31.6911 31.3557 32.237 31.7241 32.6055V32.6055ZM21.6387 21.992H29.9922C30.7533 21.992 31.3691 21.3761 31.3691 20.615C31.3691 19.8539 30.7533 19.2381 29.9922 19.2381H21.6387C20.8776 19.2381 20.2617 19.8539 20.2617 20.615C20.2617 21.3761 20.8776 21.992 21.6387 21.992V21.992ZM21.6387 16.4841H29.9922C30.7533 16.4841 31.3691 15.8683 31.3691 15.1072C31.3691 14.3461 30.7533 13.7302 29.9922 13.7302H21.6387C20.8776 13.7302 20.2617 14.3461 20.2617 15.1072C20.2617 15.8683 20.8776 16.4841 21.6387 16.4841V16.4841Z" fill="url(#paint3_linear_2762_31721)"/>
<defs>
<filter id="filter0_f_2762_31721" x="0" y="-4" width="71" height="71" filterUnits="userSpaceOnUse" color-interpolation-filters="sRGB">
<feFlood flood-opacity="0" result="BackgroundImageFix"/>
<feBlend mode="normal" in="SourceGraphic" in2="BackgroundImageFix" result="shape"/>
<feGaussianBlur stdDeviation="6" result="effect1_foregroundBlur_2762_31721"/>
</filter>
<linearGradient id="paint0_linear_2762_31721" x1="35.5" y1="45.2695" x2="35.5" y2="12.2227" gradientUnits="userSpaceOnUse">
<stop stop-color="#FFF9C3"/>
<stop offset="0.9973" stop-color="#FFFFF0"/>
</linearGradient>
<linearGradient id="paint1_linear_2762_31721" x1="35.5" y1="50.7771" x2="35.5" y2="17.5366" gradientUnits="userSpaceOnUse">
<stop stop-color="#FF783F"/>
<stop offset="1" stop-color="#FFBF08"/>
</linearGradient>
<linearGradient id="paint2_linear_2762_31721" x1="35.5" y1="41.2695" x2="35.5" y2="8.22266" gradientUnits="userSpaceOnUse">
<stop stop-color="#FFEEC3"/>
<stop offset="0.9973" stop-color="#FFF8F0"/>
</linearGradient>
<linearGradient id="paint3_linear_2762_31721" x1="35.5" y1="46.7771" x2="35.5" y2="13.5366" gradientUnits="userSpaceOnUse">
<stop stop-color="#FF8E3C"/>
<stop offset="1" stop-color="#FFC728"/>
</linearGradient>
</defs>
</svg>
