<svg width="60" height="60" viewBox="0 0 60 60" fill="none" xmlns="http://www.w3.org/2000/svg">
<path d="M51.25 28.25V17.6C51.25 7.52502 48.9 5 39.45 5H20.55C11.1 5 8.75 7.52502 8.75 17.6V45.75C8.75 52.4 12.4 53.975 16.825 49.225L16.85 49.2C18.9 47.025 22.025 47.2 23.8 49.575L26.325 52.95" stroke="white" stroke-width="4" stroke-linecap="round" stroke-linejoin="round"/>
<path d="M45.5 53.5C49.9183 53.5 53.5 49.9183 53.5 45.5C53.5 41.0818 49.9183 37.5 45.5 37.5C41.0818 37.5 37.5 41.0818 37.5 45.5C37.5 49.9183 41.0818 53.5 45.5 53.5Z" stroke="white" stroke-width="4" stroke-linecap="round" stroke-linejoin="round"/>
<path d="M55 55L52.5 52.5" stroke="white" stroke-width="4" stroke-linecap="round" stroke-linejoin="round"/>
<path d="M20 17.5H40" stroke="#FFBF08" stroke-width="4" stroke-linecap="round" stroke-linejoin="round"/>
<path d="M22.5 27.5H37.5" stroke="#FFBF08" stroke-width="4" stroke-linecap="round" stroke-linejoin="round"/>
</svg>
