<svg width="22" height="20" viewBox="0 0 22 20" fill="none" xmlns="http://www.w3.org/2000/svg">
<path fill-rule="evenodd" clip-rule="evenodd" d="M11 13.4155C10.5858 13.4155 10.25 13.0797 10.25 12.6655L10.25 0.965528C10.25 0.551314 10.5858 0.215528 11 0.215527C11.4142 0.215527 11.75 0.551314 11.75 0.965527L11.75 12.6655C11.75 13.0797 11.4142 13.4155 11 13.4155Z" fill="#222628"/>
<path fill-rule="evenodd" clip-rule="evenodd" d="M11.5302 0.529729C11.8231 0.822622 11.8231 1.2975 11.5302 1.59039L8.59088 4.52973C8.29798 4.82262 7.82311 4.82262 7.53022 4.52973C7.23732 4.23684 7.23732 3.76196 7.53022 3.46907L10.4696 0.529729C10.7624 0.236836 11.2373 0.236835 11.5302 0.529729Z" fill="#222628"/>
<path fill-rule="evenodd" clip-rule="evenodd" d="M10.4698 0.529728C10.1769 0.822622 10.1769 1.2975 10.4698 1.59039L13.4091 4.52973C13.702 4.82262 14.1769 4.82262 14.4698 4.52973C14.7627 4.23683 14.7627 3.76196 14.4698 3.46907L11.5304 0.529728C11.2375 0.236835 10.7627 0.236835 10.4698 0.529728Z" fill="#222628"/>
<path fill-rule="evenodd" clip-rule="evenodd" d="M3.5 8.74951C2.8093 8.74951 2.25 9.3088 2.25 9.99881V15.1605C2.25 16.3054 3.10586 17.2532 4.22916 17.3568C6.22867 17.5412 8.9462 17.7495 11 17.7495C13.0538 17.7495 15.7713 17.5412 17.7708 17.3568C18.8941 17.2532 19.75 16.3054 19.75 15.1605V9.99881C19.75 9.3088 19.1907 8.74951 18.5 8.74951H15.2222C14.808 8.74951 14.4722 8.41373 14.4722 7.99951C14.4722 7.5853 14.808 7.24951 15.2222 7.24951H18.5C20.0184 7.24951 21.25 8.47969 21.25 9.99881V15.1605C21.25 17.0636 19.8204 18.6741 17.9086 18.8505C15.9041 19.0354 13.1279 19.2495 11 19.2495C8.87213 19.2495 6.09586 19.0354 4.09139 18.8505C2.17962 18.6741 0.75 17.0636 0.75 15.1605V9.99881C0.75 8.47969 1.98156 7.24951 3.5 7.24951H6.77778C7.19199 7.24951 7.52778 7.5853 7.52778 7.99951C7.52778 8.41373 7.19199 8.74951 6.77778 8.74951H3.5Z" fill="#222628"/>
</svg>
