<svg width="98" height="98" viewBox="0 0 98 98" fill="none" xmlns="http://www.w3.org/2000/svg">
<path fill-rule="evenodd" clip-rule="evenodd" d="M2.12123 1.37877L1.75 0L1.37877 1.37877L0 1.75L1.37877 2.12123L1.75 3.5L2.12123 2.12123L3.5 1.75L2.12123 1.37877ZM2.12123 32.8788L1.75 31.5L1.37877 32.8788L0 33.25L1.37877 33.6212L1.75 35L2.12123 33.6212L3.5 33.25L2.12123 32.8788ZM1.75 63L2.12123 64.3788L3.5 64.75L2.12123 65.1212L1.75 66.5L1.37877 65.1212L0 64.75L1.37877 64.3788L1.75 63ZM2.12123 95.8788L1.75 94.5L1.37877 95.8788L0 96.25L1.37877 96.6212L1.75 98L2.12123 96.6212L3.5 96.25L2.12123 95.8788ZM33.25 0L33.6212 1.37877L35 1.75L33.6212 2.12123L33.25 3.5L32.8788 2.12123L31.5 1.75L32.8788 1.37877L33.25 0ZM33.6212 32.8788L33.25 31.5L32.8788 32.8788L31.5 33.25L32.8788 33.6212L33.25 35L33.6212 33.6212L35 33.25L33.6212 32.8788ZM33.25 63L33.6212 64.3788L35 64.75L33.6212 65.1212L33.25 66.5L32.8788 65.1212L31.5 64.75L32.8788 64.3788L33.25 63ZM33.6212 95.8788L33.25 94.5L32.8788 95.8788L31.5 96.25L32.8788 96.6212L33.25 98L33.6212 96.6212L35 96.25L33.6212 95.8788ZM64.75 0L65.1212 1.37877L66.5 1.75L65.1212 2.12123L64.75 3.5L64.3788 2.12123L63 1.75L64.3788 1.37877L64.75 0ZM65.1212 32.8788L64.75 31.5L64.3788 32.8788L63 33.25L64.3788 33.6212L64.75 35L65.1212 33.6212L66.5 33.25L65.1212 32.8788ZM64.75 63L65.1212 64.3788L66.5 64.75L65.1212 65.1212L64.75 66.5L64.3788 65.1212L63 64.75L64.3788 64.3788L64.75 63ZM65.1212 95.8788L64.75 94.5L64.3788 95.8788L63 96.25L64.3788 96.6212L64.75 98L65.1212 96.6212L66.5 96.25L65.1212 95.8788ZM96.25 0L96.6212 1.37877L98 1.75L96.6212 2.12123L96.25 3.5L95.8788 2.12123L94.5 1.75L95.8788 1.37877L96.25 0ZM96.6212 32.8788L96.25 31.5L95.8788 32.8788L94.5 33.25L95.8788 33.6212L96.25 35L96.6212 33.6212L98 33.25L96.6212 32.8788ZM96.25 63L96.6212 64.3788L98 64.75L96.6212 65.1212L96.25 66.5L95.8788 65.1212L94.5 64.75L95.8788 64.3788L96.25 63ZM96.6212 95.8788L96.25 94.5L95.8788 95.8788L94.5 96.25L95.8788 96.6212L96.25 98L96.6212 96.6212L98 96.25L96.6212 95.8788Z" fill="white"/>
</svg>
