<svg width="1320" height="121" viewBox="0 0 1320 121" fill="none" xmlns="http://www.w3.org/2000/svg">
<rect width="1320" height="121" rx="27" fill="url(#paint0_linear_1417_28491)"/>
<mask id="mask0_1417_28491" style="mask-type:alpha" maskUnits="userSpaceOnUse" x="0" y="0" width="1320" height="121">
<rect width="1320" height="121" rx="27" fill="url(#paint1_linear_1417_28491)"/>
</mask>
<g mask="url(#mask0_1417_28491)">
<g opacity="0.5">
<g opacity="0.3">
<path d="M1232.17 30.0347C1233.62 31.1036 1234.14 33.0369 1233.42 34.6904" stroke="white" stroke-width="1.5" stroke-linecap="round" stroke-linejoin="round"/>
<path d="M1231.31 31.521C1231.97 32.0943 1232.22 33.0106 1231.93 33.8372" stroke="white" stroke-width="1.5" stroke-linecap="round" stroke-linejoin="round"/>
<path fill-rule="evenodd" clip-rule="evenodd" d="M1226.1 34.1078C1224.87 29.5426 1226.05 28.4548 1226.6 28.2038C1226.68 28.1574 1228.48 27.2691 1229.03 28.7153C1230.38 32.316 1227.29 30.1381 1228.21 33.5428C1229.12 36.9474 1230.7 33.5205 1231.33 37.3124C1231.58 38.8381 1229.58 38.9692 1229.49 38.9683C1228.88 39.0273 1227.32 38.6733 1226.1 34.1078Z" stroke="white" stroke-width="1.5" stroke-linecap="round" stroke-linejoin="round"/>
</g>
<g opacity="0.6">
<path d="M1162.17 87.0347C1163.62 88.1036 1164.14 90.0369 1163.42 91.6904" stroke="white" stroke-width="1.5" stroke-linecap="round" stroke-linejoin="round"/>
<path d="M1161.31 88.521C1161.97 89.0943 1162.22 90.0106 1161.93 90.8372" stroke="white" stroke-width="1.5" stroke-linecap="round" stroke-linejoin="round"/>
<path fill-rule="evenodd" clip-rule="evenodd" d="M1156.1 91.1078C1154.87 86.5426 1156.05 85.4548 1156.6 85.2038C1156.68 85.1574 1158.48 84.2691 1159.03 85.7153C1160.38 89.316 1157.29 87.1381 1158.21 90.5428C1159.12 93.9474 1160.7 90.5205 1161.33 94.3124C1161.58 95.8381 1159.58 95.9692 1159.49 95.9683C1158.88 96.0273 1157.32 95.6733 1156.1 91.1078Z" stroke="white" stroke-width="1.5" stroke-linecap="round" stroke-linejoin="round"/>
</g>
<g opacity="0.4">
<path d="M1108.17 81.0347C1109.62 82.1036 1110.14 84.0369 1109.42 85.6904" stroke="white" stroke-width="1.5" stroke-linecap="round" stroke-linejoin="round"/>
<path d="M1107.31 82.521C1107.97 83.0943 1108.22 84.0106 1107.93 84.8372" stroke="white" stroke-width="1.5" stroke-linecap="round" stroke-linejoin="round"/>
<path fill-rule="evenodd" clip-rule="evenodd" d="M1102.1 85.1078C1100.87 80.5426 1102.05 79.4548 1102.6 79.2038C1102.68 79.1574 1104.48 78.2691 1105.03 79.7153C1106.38 83.316 1103.29 81.1381 1104.21 84.5428C1105.12 87.9474 1106.7 84.5205 1107.33 88.3124C1107.58 89.8381 1105.58 89.9692 1105.49 89.9683C1104.88 90.0273 1103.32 89.6733 1102.1 85.1078Z" stroke="white" stroke-width="1.5" stroke-linecap="round" stroke-linejoin="round"/>
</g>
<g opacity="0.9">
<path d="M1310.4 64.3242C1311.85 65.3931 1312.37 67.3265 1311.65 68.98" stroke="white" stroke-width="1.5" stroke-linecap="round" stroke-linejoin="round"/>
<path d="M1309.54 65.8105C1310.2 66.3839 1310.45 67.3002 1310.16 68.1267" stroke="white" stroke-width="1.5" stroke-linecap="round" stroke-linejoin="round"/>
<path fill-rule="evenodd" clip-rule="evenodd" d="M1304.33 68.3973C1303.11 63.8321 1304.28 62.7444 1304.83 62.4934C1304.91 62.447 1306.71 61.5587 1307.26 63.0049C1308.61 66.6056 1305.53 64.4277 1306.44 67.8324C1307.35 71.2369 1308.93 67.8101 1309.56 71.6019C1309.81 73.1277 1307.81 73.2587 1307.72 73.2579C1307.12 73.3168 1305.55 72.9628 1304.33 68.3973Z" stroke="white" stroke-width="1.5" stroke-linecap="round" stroke-linejoin="round"/>
</g>
<g opacity="0.7">
<path d="M1183.06 47.9009C1184.84 47.6292 1186.58 48.6289 1187.24 50.3086" stroke="white" stroke-width="1.5" stroke-linecap="round" stroke-linejoin="round"/>
<path d="M1183.51 49.5586C1184.38 49.4975 1185.2 49.9721 1185.58 50.7575" stroke="white" stroke-width="1.5" stroke-linecap="round" stroke-linejoin="round"/>
<path fill-rule="evenodd" clip-rule="evenodd" d="M1181.65 55.0748C1177.55 52.7115 1177.62 51.1102 1177.83 50.5427C1177.85 50.454 1178.5 48.5524 1179.91 49.1892C1183.41 50.782 1179.69 51.4207 1182.74 53.1833C1185.79 54.9453 1184.49 51.4058 1187.61 53.6393C1188.87 54.5411 1187.55 56.0507 1187.48 56.1144C1187.1 56.5828 1185.74 57.438 1181.65 55.0748Z" stroke="white" stroke-width="1.5" stroke-linecap="round" stroke-linejoin="round"/>
</g>
<g opacity="0.6">
<path d="M1112.51 30.2168C1114.3 29.9451 1116.03 30.9448 1116.69 32.6245" stroke="white" stroke-width="1.5" stroke-linecap="round" stroke-linejoin="round"/>
<path d="M1112.96 31.8745C1113.83 31.8134 1114.65 32.288 1115.04 33.0735" stroke="white" stroke-width="1.5" stroke-linecap="round" stroke-linejoin="round"/>
<path fill-rule="evenodd" clip-rule="evenodd" d="M1111.1 37.3907C1107.01 35.0274 1107.07 33.4262 1107.28 32.8586C1107.31 32.7699 1107.95 30.8683 1109.36 31.5051C1112.86 33.098 1109.14 33.7366 1112.19 35.4992C1115.25 37.2612 1113.94 33.7217 1117.07 35.9552C1118.32 36.857 1117 38.3666 1116.93 38.4303C1116.55 38.8987 1115.19 39.7539 1111.1 37.3907Z" stroke="white" stroke-width="1.5" stroke-linecap="round" stroke-linejoin="round"/>
</g>
<g opacity="0.3">
<path d="M1148.2 27.2627C1149.32 28.6713 1149.32 30.6732 1148.2 32.0835" stroke="white" stroke-width="1.5" stroke-linecap="round" stroke-linejoin="round"/>
<path d="M1146.98 28.4766C1147.47 29.2011 1147.47 30.1496 1146.98 30.8745" stroke="white" stroke-width="1.5" stroke-linecap="round" stroke-linejoin="round"/>
<path fill-rule="evenodd" clip-rule="evenodd" d="M1141.28 29.6251C1141.28 24.8989 1142.69 24.1528 1143.29 24.0531C1143.38 24.0288 1145.35 23.6368 1145.5 25.175C1145.87 29.0019 1143.46 26.1008 1143.46 29.6255C1143.46 33.1503 1145.87 30.2488 1145.5 34.0754C1145.35 35.6139 1143.38 35.2219 1143.29 35.1975C1142.69 35.0982 1141.28 34.3517 1141.28 29.6251Z" stroke="white" stroke-width="1.5" stroke-linecap="round" stroke-linejoin="round"/>
</g>
<g opacity="0.5">
<path d="M1216.69 73.895C1218.34 73.171 1220.27 73.6878 1221.34 75.1398" stroke="white" stroke-width="1.5" stroke-linecap="round" stroke-linejoin="round"/>
<path d="M1217.55 75.3813C1218.37 75.0967 1219.29 75.3425 1219.86 76.002" stroke="white" stroke-width="1.5" stroke-linecap="round" stroke-linejoin="round"/>
<path fill-rule="evenodd" clip-rule="evenodd" d="M1217.18 81.1909C1212.61 79.9674 1212.26 78.4045 1212.32 77.8012C1212.32 77.7096 1212.45 75.7058 1213.97 75.9563C1217.77 76.5892 1214.34 78.1685 1217.74 79.0811C1221.15 79.993 1218.97 76.9122 1222.57 78.2598C1224.02 78.8058 1223.13 80.6067 1223.08 80.6851C1222.83 81.2372 1221.74 82.4142 1217.18 81.1909Z" stroke="white" stroke-width="1.5" stroke-linecap="round" stroke-linejoin="round"/>
</g>
<g opacity="0.2">
<path d="M1288.48 22.4907C1290.13 21.7667 1292.07 22.2835 1293.14 23.7355" stroke="white" stroke-width="1.5" stroke-linecap="round" stroke-linejoin="round"/>
<path d="M1289.34 23.9771C1290.16 23.6924 1291.08 23.9382 1291.65 24.5977" stroke="white" stroke-width="1.5" stroke-linecap="round" stroke-linejoin="round"/>
<path fill-rule="evenodd" clip-rule="evenodd" d="M1288.97 29.7866C1284.41 28.5631 1284.05 27.0002 1284.11 26.3969C1284.11 26.3053 1284.24 24.3015 1285.77 24.5521C1289.56 25.1849 1286.13 26.7642 1289.54 27.6768C1292.94 28.5887 1290.76 25.508 1294.36 26.8555C1295.81 27.4015 1294.92 29.2024 1294.88 29.2808C1294.63 29.8329 1293.54 31.0099 1288.97 29.7866Z" stroke="white" stroke-width="1.5" stroke-linecap="round" stroke-linejoin="round"/>
</g>
<g opacity="0.7">
<path d="M1270.56 46.7129C1272.21 45.9889 1274.14 46.5057 1275.21 47.9576" stroke="white" stroke-width="1.5" stroke-linecap="round" stroke-linejoin="round"/>
<path d="M1271.41 48.1992C1272.24 47.9146 1273.16 48.1604 1273.73 48.8198" stroke="white" stroke-width="1.5" stroke-linecap="round" stroke-linejoin="round"/>
<path fill-rule="evenodd" clip-rule="evenodd" d="M1271.05 54.0088C1266.48 52.7853 1266.13 51.2223 1266.19 50.6191C1266.19 50.5274 1266.32 48.5237 1267.84 48.7742C1271.63 49.4071 1268.21 50.9864 1271.61 51.899C1275.02 52.8108 1272.84 49.7301 1276.44 51.0777C1277.89 51.6237 1277 53.4246 1276.95 53.5029C1276.7 54.055 1275.61 55.232 1271.05 54.0088Z" stroke="white" stroke-width="1.5" stroke-linecap="round" stroke-linejoin="round"/>
</g>
<g opacity="0.3">
<path d="M999.169 29.0347C1000.62 30.1036 1001.14 32.0369 1000.42 33.6904" stroke="white" stroke-width="1.5" stroke-linecap="round" stroke-linejoin="round"/>
<path d="M998.31 30.521C998.97 31.0943 999.215 32.0106 998.931 32.8372" stroke="white" stroke-width="1.5" stroke-linecap="round" stroke-linejoin="round"/>
<path fill-rule="evenodd" clip-rule="evenodd" d="M993.096 33.1078C991.873 28.5426 993.05 27.4548 993.601 27.2038C993.68 27.1574 995.481 26.2691 996.027 27.7153C997.375 31.316 994.294 29.1381 995.206 32.5428C996.119 35.9474 997.697 32.5205 998.331 36.3124C998.581 37.8381 996.577 37.9692 996.486 37.9683C995.883 38.0273 994.319 37.6733 993.096 33.1078Z" stroke="white" stroke-width="1.5" stroke-linecap="round" stroke-linejoin="round"/>
</g>
<g opacity="0.6">
<path d="M929.169 86.0347C930.622 87.1036 931.141 89.0369 930.419 90.6904" stroke="white" stroke-width="1.5" stroke-linecap="round" stroke-linejoin="round"/>
<path d="M928.311 87.521C928.97 88.0943 929.215 89.0106 928.931 89.8372" stroke="white" stroke-width="1.5" stroke-linecap="round" stroke-linejoin="round"/>
<path fill-rule="evenodd" clip-rule="evenodd" d="M923.096 90.1078C921.873 85.5426 923.05 84.4548 923.601 84.2038C923.681 84.1574 925.481 83.2691 926.027 84.7153C927.375 88.316 924.294 86.1381 925.206 89.5428C926.119 92.9474 927.698 89.5205 928.331 93.3124C928.581 94.8381 926.577 94.9692 926.486 94.9683C925.883 95.0273 924.319 94.6733 923.096 90.1078Z" stroke="white" stroke-width="1.5" stroke-linecap="round" stroke-linejoin="round"/>
</g>
<g opacity="0.4">
<path d="M875.169 80.0347C876.622 81.1036 877.141 83.0369 876.42 84.6904" stroke="white" stroke-width="1.5" stroke-linecap="round" stroke-linejoin="round"/>
<path d="M874.311 81.521C874.97 82.0943 875.216 83.0106 874.931 83.8372" stroke="white" stroke-width="1.5" stroke-linecap="round" stroke-linejoin="round"/>
<path fill-rule="evenodd" clip-rule="evenodd" d="M869.096 84.1078C867.873 79.5426 869.05 78.4548 869.602 78.2038C869.681 78.1574 871.482 77.2691 872.027 78.7153C873.375 82.316 870.294 80.1381 871.206 83.5428C872.119 86.9474 873.698 83.5205 874.331 87.3124C874.581 88.8381 872.577 88.9692 872.487 88.9683C871.883 89.0273 870.32 88.6733 869.096 84.1078Z" stroke="white" stroke-width="1.5" stroke-linecap="round" stroke-linejoin="round"/>
</g>
<g opacity="0.9">
<path d="M1077.4 63.3242C1078.85 64.3931 1079.37 66.3265 1078.65 67.98" stroke="white" stroke-width="1.5" stroke-linecap="round" stroke-linejoin="round"/>
<path d="M1076.54 64.8105C1077.2 65.3839 1077.45 66.3002 1077.16 67.1267" stroke="white" stroke-width="1.5" stroke-linecap="round" stroke-linejoin="round"/>
<path fill-rule="evenodd" clip-rule="evenodd" d="M1071.33 67.3973C1070.11 62.8321 1071.28 61.7444 1071.83 61.4934C1071.91 61.447 1073.71 60.5587 1074.26 62.0049C1075.61 65.6056 1072.53 63.4277 1073.44 66.8324C1074.35 70.2369 1075.93 66.8101 1076.56 70.6019C1076.81 72.1277 1074.81 72.2587 1074.72 72.2579C1074.12 72.3168 1072.55 71.9628 1071.33 67.3973Z" stroke="white" stroke-width="1.5" stroke-linecap="round" stroke-linejoin="round"/>
</g>
<g opacity="0.7">
<path d="M950.061 46.9009C951.844 46.6292 953.579 47.6289 954.237 49.3086" stroke="white" stroke-width="1.5" stroke-linecap="round" stroke-linejoin="round"/>
<path d="M950.505 48.5586C951.377 48.4975 952.198 48.9721 952.582 49.7575" stroke="white" stroke-width="1.5" stroke-linecap="round" stroke-linejoin="round"/>
<path fill-rule="evenodd" clip-rule="evenodd" d="M948.647 54.0748C944.554 51.7115 944.617 50.1102 944.83 49.5427C944.853 49.454 945.498 47.5524 946.907 48.1892C950.406 49.782 946.687 50.4207 949.74 52.1833C952.792 53.9453 951.486 50.4058 954.615 52.6393C955.87 53.5411 954.546 55.0507 954.481 55.1144C954.096 55.5828 952.74 56.438 948.647 54.0748Z" stroke="white" stroke-width="1.5" stroke-linecap="round" stroke-linejoin="round"/>
</g>
<g opacity="0.6">
<path d="M879.514 29.2168C881.298 28.9451 883.032 29.9448 883.691 31.6245" stroke="white" stroke-width="1.5" stroke-linecap="round" stroke-linejoin="round"/>
<path d="M879.958 30.8745C880.83 30.8134 881.652 31.288 882.035 32.0735" stroke="white" stroke-width="1.5" stroke-linecap="round" stroke-linejoin="round"/>
<path fill-rule="evenodd" clip-rule="evenodd" d="M878.1 36.3907C874.008 34.0274 874.07 32.4262 874.283 31.8586C874.306 31.7699 874.951 29.8683 876.36 30.5051C879.859 32.098 876.141 32.7366 879.193 34.4992C882.246 36.2612 880.939 32.7217 884.068 34.9552C885.324 35.857 884 37.3666 883.935 37.4303C883.55 37.8987 882.194 38.7539 878.1 36.3907Z" stroke="white" stroke-width="1.5" stroke-linecap="round" stroke-linejoin="round"/>
</g>
<g opacity="0.3">
<path d="M915.196 26.2627C916.323 27.6713 916.324 29.6732 915.199 31.0835" stroke="white" stroke-width="1.5" stroke-linecap="round" stroke-linejoin="round"/>
<path d="M913.982 27.4766C914.471 28.2011 914.471 29.1496 913.982 29.8745" stroke="white" stroke-width="1.5" stroke-linecap="round" stroke-linejoin="round"/>
<path fill-rule="evenodd" clip-rule="evenodd" d="M908.276 28.6251C908.276 23.8989 909.694 23.1528 910.292 23.0531C910.381 23.0288 912.35 22.6368 912.503 24.175C912.873 28.0019 910.461 25.1008 910.46 28.6255C910.461 32.1503 912.873 29.2488 912.503 33.0754C912.35 34.6139 910.38 34.2219 910.293 34.1975C909.695 34.0982 908.276 33.3517 908.276 28.6251Z" stroke="white" stroke-width="1.5" stroke-linecap="round" stroke-linejoin="round"/>
</g>
<g opacity="0.5">
<path d="M983.688 72.895C985.34 72.171 987.274 72.6878 988.345 74.1398" stroke="white" stroke-width="1.5" stroke-linecap="round" stroke-linejoin="round"/>
<path d="M984.546 74.3813C985.372 74.0967 986.288 74.3425 986.862 75.002" stroke="white" stroke-width="1.5" stroke-linecap="round" stroke-linejoin="round"/>
<path fill-rule="evenodd" clip-rule="evenodd" d="M984.179 80.1909C979.614 78.9674 979.26 77.4045 979.318 76.8012C979.318 76.7096 979.449 74.7058 980.974 74.9563C984.766 75.5892 981.34 77.1685 984.744 78.0811C988.149 78.993 985.971 75.9122 989.571 77.2598C991.018 77.8058 990.129 79.6067 990.083 79.6851C989.832 80.2372 988.744 81.4142 984.179 80.1909Z" stroke="white" stroke-width="1.5" stroke-linecap="round" stroke-linejoin="round"/>
</g>
<g opacity="0.2">
<path d="M1055.48 21.4907C1057.13 20.7667 1059.07 21.2835 1060.14 22.7355" stroke="white" stroke-width="1.5" stroke-linecap="round" stroke-linejoin="round"/>
<path d="M1056.34 22.9771C1057.16 22.6924 1058.08 22.9382 1058.65 23.5977" stroke="white" stroke-width="1.5" stroke-linecap="round" stroke-linejoin="round"/>
<path fill-rule="evenodd" clip-rule="evenodd" d="M1055.97 28.7866C1051.41 27.5631 1051.05 26.0002 1051.11 25.3969C1051.11 25.3053 1051.24 23.3015 1052.77 23.5521C1056.56 24.1849 1053.13 25.7642 1056.54 26.6768C1059.94 27.5887 1057.76 24.508 1061.36 25.8555C1062.81 26.4015 1061.92 28.2024 1061.88 28.2808C1061.63 28.8329 1060.54 30.0099 1055.97 28.7866Z" stroke="white" stroke-width="1.5" stroke-linecap="round" stroke-linejoin="round"/>
</g>
<g opacity="0.7">
<path d="M1037.56 45.7129C1039.21 44.9889 1041.14 45.5057 1042.21 46.9576" stroke="white" stroke-width="1.5" stroke-linecap="round" stroke-linejoin="round"/>
<path d="M1038.41 47.1992C1039.24 46.9146 1040.16 47.1604 1040.73 47.8198" stroke="white" stroke-width="1.5" stroke-linecap="round" stroke-linejoin="round"/>
<path fill-rule="evenodd" clip-rule="evenodd" d="M1038.05 53.0088C1033.48 51.7853 1033.13 50.2223 1033.19 49.6191C1033.19 49.5274 1033.32 47.5237 1034.84 47.7742C1038.63 48.4071 1035.21 49.9864 1038.61 50.899C1042.02 51.8108 1039.84 48.7301 1043.44 50.0777C1044.89 50.6237 1044 52.4246 1043.95 52.5029C1043.7 53.055 1042.61 54.232 1038.05 53.0088Z" stroke="white" stroke-width="1.5" stroke-linecap="round" stroke-linejoin="round"/>
</g>
<g opacity="0.3">
<path d="M766.169 28.0347C767.622 29.1036 768.141 31.0369 767.419 32.6904" stroke="white" stroke-width="1.5" stroke-linecap="round" stroke-linejoin="round"/>
<path d="M765.31 29.521C765.97 30.0943 766.215 31.0106 765.931 31.8372" stroke="white" stroke-width="1.5" stroke-linecap="round" stroke-linejoin="round"/>
<path fill-rule="evenodd" clip-rule="evenodd" d="M760.096 32.1078C758.873 27.5426 760.05 26.4548 760.601 26.2038C760.68 26.1574 762.481 25.2691 763.027 26.7153C764.375 30.316 761.294 28.1381 762.206 31.5428C763.119 34.9474 764.697 31.5205 765.331 35.3124C765.581 36.8381 763.577 36.9692 763.486 36.9683C762.883 37.0273 761.319 36.6733 760.096 32.1078Z" stroke="white" stroke-width="1.5" stroke-linecap="round" stroke-linejoin="round"/>
</g>
<g opacity="0.6">
<path d="M696.169 85.0347C697.622 86.1036 698.141 88.0369 697.419 89.6904" stroke="white" stroke-width="1.5" stroke-linecap="round" stroke-linejoin="round"/>
<path d="M695.311 86.521C695.97 87.0943 696.215 88.0106 695.931 88.8372" stroke="white" stroke-width="1.5" stroke-linecap="round" stroke-linejoin="round"/>
<path fill-rule="evenodd" clip-rule="evenodd" d="M690.096 89.1078C688.873 84.5426 690.05 83.4548 690.601 83.2038C690.681 83.1574 692.481 82.2691 693.027 83.7153C694.375 87.316 691.294 85.1381 692.206 88.5428C693.119 91.9474 694.698 88.5205 695.331 92.3124C695.581 93.8381 693.577 93.9692 693.486 93.9683C692.883 94.0273 691.319 93.6733 690.096 89.1078Z" stroke="white" stroke-width="1.5" stroke-linecap="round" stroke-linejoin="round"/>
</g>
<g opacity="0.4">
<path d="M642.169 79.0347C643.622 80.1036 644.141 82.0369 643.42 83.6904" stroke="white" stroke-width="1.5" stroke-linecap="round" stroke-linejoin="round"/>
<path d="M641.311 80.521C641.97 81.0943 642.215 82.0106 641.931 82.8372" stroke="white" stroke-width="1.5" stroke-linecap="round" stroke-linejoin="round"/>
<path fill-rule="evenodd" clip-rule="evenodd" d="M636.096 83.1078C634.873 78.5426 636.05 77.4548 636.602 77.2038C636.681 77.1574 638.481 76.2691 639.027 77.7153C640.375 81.316 637.294 79.1381 638.206 82.5428C639.119 85.9474 640.698 82.5205 641.331 86.3124C641.581 87.8381 639.577 87.9692 639.486 87.9683C638.883 88.0273 637.32 87.6733 636.096 83.1078Z" stroke="white" stroke-width="1.5" stroke-linecap="round" stroke-linejoin="round"/>
</g>
<g opacity="0.9">
<path d="M844.402 62.3242C845.855 63.3931 846.374 65.3265 845.652 66.98" stroke="white" stroke-width="1.5" stroke-linecap="round" stroke-linejoin="round"/>
<path d="M843.543 63.8105C844.203 64.3839 844.448 65.3002 844.164 66.1267" stroke="white" stroke-width="1.5" stroke-linecap="round" stroke-linejoin="round"/>
<path fill-rule="evenodd" clip-rule="evenodd" d="M838.329 66.3973C837.106 61.8321 838.283 60.7444 838.834 60.4934C838.913 60.447 840.714 59.5587 841.26 61.0049C842.608 64.6056 839.527 62.4277 840.439 65.8324C841.352 69.2369 842.93 65.8101 843.564 69.6019C843.814 71.1277 841.81 71.2587 841.719 71.2579C841.116 71.3168 839.552 70.9628 838.329 66.3973Z" stroke="white" stroke-width="1.5" stroke-linecap="round" stroke-linejoin="round"/>
</g>
<g opacity="0.7">
<path d="M717.061 45.9009C718.844 45.6292 720.579 46.6289 721.237 48.3086" stroke="white" stroke-width="1.5" stroke-linecap="round" stroke-linejoin="round"/>
<path d="M717.505 47.5586C718.377 47.4975 719.198 47.9721 719.582 48.7575" stroke="white" stroke-width="1.5" stroke-linecap="round" stroke-linejoin="round"/>
<path fill-rule="evenodd" clip-rule="evenodd" d="M715.647 53.0748C711.554 50.7115 711.617 49.1102 711.83 48.5427C711.853 48.454 712.498 46.5524 713.907 47.1892C717.406 48.782 713.687 49.4207 716.74 51.1833C719.792 52.9453 718.486 49.4058 721.615 51.6393C722.87 52.5411 721.546 54.0507 721.481 54.1144C721.096 54.5828 719.74 55.438 715.647 53.0748Z" stroke="white" stroke-width="1.5" stroke-linecap="round" stroke-linejoin="round"/>
</g>
<g opacity="0.6">
<path d="M646.514 28.2168C648.298 27.9451 650.032 28.9448 650.691 30.6245" stroke="white" stroke-width="1.5" stroke-linecap="round" stroke-linejoin="round"/>
<path d="M646.958 29.8745C647.83 29.8134 648.652 30.288 649.035 31.0735" stroke="white" stroke-width="1.5" stroke-linecap="round" stroke-linejoin="round"/>
<path fill-rule="evenodd" clip-rule="evenodd" d="M645.1 35.3907C641.007 33.0274 641.07 31.4262 641.283 30.8586C641.306 30.7699 641.951 28.8683 643.36 29.5051C646.859 31.098 643.14 31.7366 646.193 33.4992C649.246 35.2612 647.939 31.7217 651.068 33.9552C652.324 34.857 650.999 36.3666 650.935 36.4303C650.549 36.8987 649.194 37.7539 645.1 35.3907Z" stroke="white" stroke-width="1.5" stroke-linecap="round" stroke-linejoin="round"/>
</g>
<g opacity="0.3">
<path d="M682.196 25.2627C683.323 26.6713 683.324 28.6732 682.199 30.0835" stroke="white" stroke-width="1.5" stroke-linecap="round" stroke-linejoin="round"/>
<path d="M680.982 26.4766C681.471 27.2011 681.471 28.1496 680.982 28.8745" stroke="white" stroke-width="1.5" stroke-linecap="round" stroke-linejoin="round"/>
<path fill-rule="evenodd" clip-rule="evenodd" d="M675.276 27.6251C675.276 22.8989 676.694 22.1528 677.292 22.0531C677.38 22.0288 679.35 21.6368 679.503 23.175C679.873 27.0019 677.461 24.1008 677.46 27.6255C677.461 31.1503 679.873 28.2488 679.503 32.0754C679.35 33.6139 677.38 33.2219 677.293 33.1975C676.694 33.0982 675.276 32.3517 675.276 27.6251Z" stroke="white" stroke-width="1.5" stroke-linecap="round" stroke-linejoin="round"/>
</g>
<g opacity="0.5">
<path d="M750.688 71.895C752.34 71.171 754.274 71.6878 755.345 73.1398" stroke="white" stroke-width="1.5" stroke-linecap="round" stroke-linejoin="round"/>
<path d="M751.546 73.3813C752.372 73.0967 753.288 73.3425 753.862 74.002" stroke="white" stroke-width="1.5" stroke-linecap="round" stroke-linejoin="round"/>
<path fill-rule="evenodd" clip-rule="evenodd" d="M751.179 79.1909C746.614 77.9674 746.26 76.4045 746.318 75.8012C746.318 75.7096 746.449 73.7058 747.974 73.9563C751.766 74.5892 748.34 76.1685 751.744 77.0811C755.149 77.993 752.971 74.9122 756.571 76.2598C758.018 76.8058 757.129 78.6067 757.083 78.6851C756.832 79.2372 755.744 80.4142 751.179 79.1909Z" stroke="white" stroke-width="1.5" stroke-linecap="round" stroke-linejoin="round"/>
</g>
<g opacity="0.2">
<path d="M822.48 20.4907C824.133 19.7667 826.067 20.2835 827.138 21.7355" stroke="white" stroke-width="1.5" stroke-linecap="round" stroke-linejoin="round"/>
<path d="M823.339 21.9771C824.165 21.6924 825.081 21.9382 825.655 22.5977" stroke="white" stroke-width="1.5" stroke-linecap="round" stroke-linejoin="round"/>
<path fill-rule="evenodd" clip-rule="evenodd" d="M822.971 27.7866C818.406 26.5631 818.053 25.0002 818.111 24.3969C818.111 24.3053 818.242 22.3015 819.767 22.5521C823.559 23.1849 820.133 24.7642 823.537 25.6768C826.942 26.5887 824.764 23.508 828.364 24.8555C829.811 25.4015 828.922 27.2024 828.876 27.2808C828.625 27.8329 827.537 29.0099 822.971 27.7866Z" stroke="white" stroke-width="1.5" stroke-linecap="round" stroke-linejoin="round"/>
</g>
<g opacity="0.7">
<path d="M804.556 44.7129C806.208 43.9889 808.142 44.5057 809.213 45.9576" stroke="white" stroke-width="1.5" stroke-linecap="round" stroke-linejoin="round"/>
<path d="M805.414 46.1992C806.24 45.9146 807.157 46.1604 807.73 46.8198" stroke="white" stroke-width="1.5" stroke-linecap="round" stroke-linejoin="round"/>
<path fill-rule="evenodd" clip-rule="evenodd" d="M805.047 52.0088C800.482 50.7853 800.128 49.2223 800.187 48.6191C800.186 48.5274 800.317 46.5237 801.842 46.7742C805.635 47.4071 802.208 48.9864 805.613 49.899C809.017 50.8108 806.839 47.7301 810.44 49.0777C811.886 49.6237 810.998 51.4246 810.951 51.5029C810.701 52.055 809.612 53.232 805.047 52.0088Z" stroke="white" stroke-width="1.5" stroke-linecap="round" stroke-linejoin="round"/>
</g>
<g opacity="0.3">
<path d="M533.169 27.0347C534.622 28.1036 535.141 30.0369 534.419 31.6904" stroke="white" stroke-width="1.5" stroke-linecap="round" stroke-linejoin="round"/>
<path d="M532.31 28.521C532.97 29.0943 533.215 30.0106 532.931 30.8372" stroke="white" stroke-width="1.5" stroke-linecap="round" stroke-linejoin="round"/>
<path fill-rule="evenodd" clip-rule="evenodd" d="M527.096 31.1078C525.873 26.5426 527.05 25.4548 527.601 25.2038C527.68 25.1574 529.481 24.2691 530.027 25.7153C531.375 29.316 528.294 27.1381 529.206 30.5428C530.119 33.9474 531.697 30.5205 532.331 34.3124C532.581 35.8381 530.577 35.9692 530.486 35.9683C529.883 36.0273 528.319 35.6733 527.096 31.1078Z" stroke="white" stroke-width="1.5" stroke-linecap="round" stroke-linejoin="round"/>
</g>
<g opacity="0.6">
<path d="M463.169 84.0347C464.622 85.1036 465.141 87.0369 464.419 88.6904" stroke="white" stroke-width="1.5" stroke-linecap="round" stroke-linejoin="round"/>
<path d="M462.311 85.521C462.97 86.0943 463.215 87.0106 462.931 87.8372" stroke="white" stroke-width="1.5" stroke-linecap="round" stroke-linejoin="round"/>
<path fill-rule="evenodd" clip-rule="evenodd" d="M457.096 88.1078C455.873 83.5426 457.05 82.4548 457.601 82.2038C457.681 82.1574 459.481 81.2691 460.027 82.7153C461.375 86.316 458.294 84.1381 459.206 87.5428C460.119 90.9474 461.698 87.5205 462.331 91.3124C462.581 92.8381 460.577 92.9692 460.486 92.9683C459.883 93.0273 458.319 92.6733 457.096 88.1078Z" stroke="white" stroke-width="1.5" stroke-linecap="round" stroke-linejoin="round"/>
</g>
<g opacity="0.4">
<path d="M409.169 78.0347C410.622 79.1036 411.141 81.0369 410.419 82.6904" stroke="white" stroke-width="1.5" stroke-linecap="round" stroke-linejoin="round"/>
<path d="M408.311 79.521C408.97 80.0943 409.215 81.0106 408.931 81.8372" stroke="white" stroke-width="1.5" stroke-linecap="round" stroke-linejoin="round"/>
<path fill-rule="evenodd" clip-rule="evenodd" d="M403.096 82.1078C401.873 77.5426 403.05 76.4548 403.601 76.2038C403.681 76.1574 405.481 75.2691 406.027 76.7153C407.375 80.316 404.294 78.1381 405.206 81.5428C406.119 84.9474 407.698 81.5205 408.331 85.3124C408.581 86.8381 406.577 86.9692 406.486 86.9683C405.883 87.0273 404.319 86.6733 403.096 82.1078Z" stroke="white" stroke-width="1.5" stroke-linecap="round" stroke-linejoin="round"/>
</g>
<g opacity="0.9">
<path d="M611.402 61.3242C612.855 62.3931 613.374 64.3265 612.652 65.98" stroke="white" stroke-width="1.5" stroke-linecap="round" stroke-linejoin="round"/>
<path d="M610.543 62.8105C611.203 63.3839 611.448 64.3002 611.164 65.1267" stroke="white" stroke-width="1.5" stroke-linecap="round" stroke-linejoin="round"/>
<path fill-rule="evenodd" clip-rule="evenodd" d="M605.329 65.3973C604.106 60.8321 605.283 59.7444 605.834 59.4934C605.913 59.447 607.714 58.5587 608.26 60.0049C609.608 63.6056 606.527 61.4277 607.439 64.8324C608.352 68.2369 609.93 64.8101 610.564 68.6019C610.814 70.1277 608.81 70.2587 608.719 70.2579C608.116 70.3168 606.552 69.9628 605.329 65.3973Z" stroke="white" stroke-width="1.5" stroke-linecap="round" stroke-linejoin="round"/>
</g>
<g opacity="0.7">
<path d="M484.061 44.9009C485.844 44.6292 487.579 45.6289 488.237 47.3086" stroke="white" stroke-width="1.5" stroke-linecap="round" stroke-linejoin="round"/>
<path d="M484.505 46.5586C485.377 46.4975 486.198 46.9721 486.582 47.7575" stroke="white" stroke-width="1.5" stroke-linecap="round" stroke-linejoin="round"/>
<path fill-rule="evenodd" clip-rule="evenodd" d="M482.647 52.0748C478.554 49.7115 478.617 48.1102 478.83 47.5427C478.853 47.454 479.498 45.5524 480.906 46.1892C484.406 47.782 480.687 48.4207 483.739 50.1833C486.792 51.9453 485.485 48.4058 488.614 50.6393C489.87 51.5411 488.546 53.0507 488.481 53.1144C488.096 53.5828 486.74 54.438 482.647 52.0748Z" stroke="white" stroke-width="1.5" stroke-linecap="round" stroke-linejoin="round"/>
</g>
<g opacity="0.6">
<path d="M413.514 27.2168C415.298 26.9451 417.032 27.9448 417.691 29.6245" stroke="white" stroke-width="1.5" stroke-linecap="round" stroke-linejoin="round"/>
<path d="M413.958 28.8745C414.83 28.8134 415.652 29.288 416.035 30.0735" stroke="white" stroke-width="1.5" stroke-linecap="round" stroke-linejoin="round"/>
<path fill-rule="evenodd" clip-rule="evenodd" d="M412.1 34.3907C408.007 32.0274 408.07 30.4262 408.283 29.8586C408.306 29.7699 408.951 27.8683 410.36 28.5051C413.859 30.098 410.14 30.7366 413.193 32.4992C416.246 34.2612 414.939 30.7217 418.068 32.9552C419.324 33.857 417.999 35.3666 417.935 35.4303C417.549 35.8987 416.194 36.7539 412.1 34.3907Z" stroke="white" stroke-width="1.5" stroke-linecap="round" stroke-linejoin="round"/>
</g>
<g opacity="0.3">
<path d="M449.196 24.2627C450.323 25.6713 450.324 27.6732 449.199 29.0835" stroke="white" stroke-width="1.5" stroke-linecap="round" stroke-linejoin="round"/>
<path d="M447.982 25.4766C448.471 26.2011 448.471 27.1496 447.982 27.8745" stroke="white" stroke-width="1.5" stroke-linecap="round" stroke-linejoin="round"/>
<path fill-rule="evenodd" clip-rule="evenodd" d="M442.276 26.6251C442.276 21.8989 443.694 21.1528 444.292 21.0531C444.38 21.0288 446.35 20.6368 446.503 22.175C446.873 26.0019 444.461 23.1008 444.46 26.6255C444.461 30.1503 446.873 27.2488 446.503 31.0754C446.35 32.6139 444.38 32.2219 444.293 32.1975C443.694 32.0982 442.276 31.3517 442.276 26.6251Z" stroke="white" stroke-width="1.5" stroke-linecap="round" stroke-linejoin="round"/>
</g>
<g opacity="0.5">
<path d="M517.688 70.895C519.34 70.171 521.274 70.6878 522.345 72.1398" stroke="white" stroke-width="1.5" stroke-linecap="round" stroke-linejoin="round"/>
<path d="M518.546 72.3813C519.372 72.0967 520.288 72.3425 520.862 73.002" stroke="white" stroke-width="1.5" stroke-linecap="round" stroke-linejoin="round"/>
<path fill-rule="evenodd" clip-rule="evenodd" d="M518.179 78.1909C513.614 76.9674 513.26 75.4045 513.318 74.8012C513.318 74.7096 513.449 72.7058 514.974 72.9563C518.766 73.5892 515.34 75.1685 518.744 76.0811C522.149 76.993 519.971 73.9122 523.571 75.2598C525.018 75.8058 524.129 77.6067 524.083 77.6851C523.832 78.2372 522.744 79.4142 518.179 78.1909Z" stroke="white" stroke-width="1.5" stroke-linecap="round" stroke-linejoin="round"/>
</g>
<g opacity="0.2">
<path d="M589.48 19.4907C591.133 18.7667 593.067 19.2835 594.138 20.7355" stroke="white" stroke-width="1.5" stroke-linecap="round" stroke-linejoin="round"/>
<path d="M590.339 20.9771C591.165 20.6924 592.081 20.9382 592.655 21.5977" stroke="white" stroke-width="1.5" stroke-linecap="round" stroke-linejoin="round"/>
<path fill-rule="evenodd" clip-rule="evenodd" d="M589.971 26.7866C585.406 25.5631 585.053 24.0002 585.111 23.3969C585.111 23.3053 585.242 21.3015 586.767 21.5521C590.559 22.1849 587.133 23.7642 590.537 24.6768C593.942 25.5887 591.764 22.508 595.364 23.8555C596.811 24.4015 595.922 26.2024 595.876 26.2808C595.625 26.8329 594.537 28.0099 589.971 26.7866Z" stroke="white" stroke-width="1.5" stroke-linecap="round" stroke-linejoin="round"/>
</g>
<g opacity="0.7">
<path d="M571.556 43.7129C573.208 42.9889 575.142 43.5057 576.213 44.9576" stroke="white" stroke-width="1.5" stroke-linecap="round" stroke-linejoin="round"/>
<path d="M572.414 45.1992C573.24 44.9146 574.157 45.1604 574.73 45.8198" stroke="white" stroke-width="1.5" stroke-linecap="round" stroke-linejoin="round"/>
<path fill-rule="evenodd" clip-rule="evenodd" d="M572.047 51.0088C567.482 49.7853 567.128 48.2223 567.187 47.6191C567.186 47.5274 567.317 45.5237 568.842 45.7742C572.635 46.4071 569.208 47.9864 572.613 48.899C576.017 49.8108 573.839 46.7301 577.44 48.0777C578.886 48.6237 577.998 50.4246 577.951 50.5029C577.701 51.055 576.612 52.232 572.047 51.0088Z" stroke="white" stroke-width="1.5" stroke-linecap="round" stroke-linejoin="round"/>
</g>
<g opacity="0.3">
<path d="M300.169 26.0347C301.622 27.1036 302.141 29.0369 301.419 30.6904" stroke="white" stroke-width="1.5" stroke-linecap="round" stroke-linejoin="round"/>
<path d="M299.31 27.521C299.97 28.0943 300.215 29.0106 299.931 29.8372" stroke="white" stroke-width="1.5" stroke-linecap="round" stroke-linejoin="round"/>
<path fill-rule="evenodd" clip-rule="evenodd" d="M294.096 30.1078C292.873 25.5426 294.05 24.4548 294.601 24.2038C294.68 24.1574 296.481 23.2691 297.027 24.7153C298.375 28.316 295.294 26.1381 296.206 29.5428C297.119 32.9474 298.697 29.5205 299.331 33.3124C299.581 34.8381 297.577 34.9692 297.486 34.9683C296.883 35.0273 295.319 34.6733 294.096 30.1078Z" stroke="white" stroke-width="1.5" stroke-linecap="round" stroke-linejoin="round"/>
</g>
<g opacity="0.6">
<path d="M230.169 83.0347C231.622 84.1036 232.141 86.0369 231.419 87.6904" stroke="white" stroke-width="1.5" stroke-linecap="round" stroke-linejoin="round"/>
<path d="M229.311 84.521C229.97 85.0943 230.215 86.0106 229.931 86.8372" stroke="white" stroke-width="1.5" stroke-linecap="round" stroke-linejoin="round"/>
<path fill-rule="evenodd" clip-rule="evenodd" d="M224.096 87.1078C222.873 82.5426 224.05 81.4548 224.601 81.2038C224.681 81.1574 226.481 80.2691 227.027 81.7153C228.375 85.316 225.294 83.1381 226.206 86.5428C227.119 89.9474 228.698 86.5205 229.331 90.3124C229.581 91.8381 227.577 91.9692 227.486 91.9683C226.883 92.0273 225.319 91.6733 224.096 87.1078Z" stroke="white" stroke-width="1.5" stroke-linecap="round" stroke-linejoin="round"/>
</g>
<g opacity="0.4">
<path d="M176.169 77.0347C177.622 78.1036 178.141 80.0369 177.419 81.6904" stroke="white" stroke-width="1.5" stroke-linecap="round" stroke-linejoin="round"/>
<path d="M175.311 78.521C175.97 79.0943 176.215 80.0106 175.931 80.8372" stroke="white" stroke-width="1.5" stroke-linecap="round" stroke-linejoin="round"/>
<path fill-rule="evenodd" clip-rule="evenodd" d="M170.096 81.1078C168.873 76.5426 170.05 75.4548 170.601 75.2038C170.681 75.1574 172.481 74.2691 173.027 75.7153C174.375 79.316 171.294 77.1381 172.206 80.5428C173.119 83.9474 174.698 80.5205 175.331 84.3124C175.581 85.8381 173.577 85.9692 173.486 85.9683C172.883 86.0273 171.319 85.6733 170.096 81.1078Z" stroke="white" stroke-width="1.5" stroke-linecap="round" stroke-linejoin="round"/>
</g>
<g opacity="0.9">
<path d="M378.402 60.3242C379.855 61.3931 380.374 63.3265 379.652 64.98" stroke="white" stroke-width="1.5" stroke-linecap="round" stroke-linejoin="round"/>
<path d="M377.543 61.8105C378.203 62.3839 378.448 63.3002 378.164 64.1267" stroke="white" stroke-width="1.5" stroke-linecap="round" stroke-linejoin="round"/>
<path fill-rule="evenodd" clip-rule="evenodd" d="M372.329 64.3973C371.106 59.8321 372.283 58.7444 372.834 58.4934C372.913 58.447 374.714 57.5587 375.26 59.0049C376.608 62.6056 373.527 60.4277 374.439 63.8324C375.352 67.2369 376.93 63.8101 377.564 67.6019C377.814 69.1277 375.81 69.2587 375.719 69.2579C375.116 69.3168 373.552 68.9628 372.329 64.3973Z" stroke="white" stroke-width="1.5" stroke-linecap="round" stroke-linejoin="round"/>
</g>
<g opacity="0.7">
<path d="M251.061 43.9009C252.844 43.6292 254.579 44.6289 255.237 46.3086" stroke="white" stroke-width="1.5" stroke-linecap="round" stroke-linejoin="round"/>
<path d="M251.505 45.5586C252.377 45.4975 253.198 45.9721 253.582 46.7575" stroke="white" stroke-width="1.5" stroke-linecap="round" stroke-linejoin="round"/>
<path fill-rule="evenodd" clip-rule="evenodd" d="M249.647 51.0748C245.554 48.7115 245.617 47.1102 245.83 46.5427C245.853 46.454 246.498 44.5524 247.906 45.1892C251.406 46.782 247.687 47.4207 250.739 49.1833C253.792 50.9453 252.485 47.4058 255.614 49.6393C256.87 50.5411 255.546 52.0507 255.481 52.1144C255.096 52.5828 253.74 53.438 249.647 51.0748Z" stroke="white" stroke-width="1.5" stroke-linecap="round" stroke-linejoin="round"/>
</g>
<g opacity="0.6">
<path d="M180.514 26.2168C182.298 25.9451 184.032 26.9448 184.691 28.6245" stroke="white" stroke-width="1.5" stroke-linecap="round" stroke-linejoin="round"/>
<path d="M180.958 27.8745C181.83 27.8134 182.652 28.288 183.035 29.0735" stroke="white" stroke-width="1.5" stroke-linecap="round" stroke-linejoin="round"/>
<path fill-rule="evenodd" clip-rule="evenodd" d="M179.1 33.3907C175.007 31.0274 175.07 29.4262 175.283 28.8586C175.306 28.7699 175.951 26.8683 177.36 27.5051C180.859 29.098 177.14 29.7366 180.193 31.4992C183.246 33.2612 181.939 29.7217 185.068 31.9552C186.324 32.857 184.999 34.3666 184.935 34.4303C184.549 34.8987 183.194 35.7539 179.1 33.3907Z" stroke="white" stroke-width="1.5" stroke-linecap="round" stroke-linejoin="round"/>
</g>
<g opacity="0.3">
<path d="M216.196 23.2627C217.323 24.6713 217.324 26.6732 216.199 28.0835" stroke="white" stroke-width="1.5" stroke-linecap="round" stroke-linejoin="round"/>
<path d="M214.982 24.4766C215.471 25.2011 215.471 26.1496 214.982 26.8745" stroke="white" stroke-width="1.5" stroke-linecap="round" stroke-linejoin="round"/>
<path fill-rule="evenodd" clip-rule="evenodd" d="M209.276 25.6251C209.276 20.8989 210.694 20.1528 211.292 20.0531C211.38 20.0288 213.35 19.6368 213.503 21.175C213.873 25.0019 211.46 22.1008 211.46 25.6255C211.461 29.1503 213.873 26.2488 213.503 30.0754C213.35 31.6139 211.38 31.2219 211.293 31.1975C210.694 31.0982 209.276 30.3517 209.276 25.6251Z" stroke="white" stroke-width="1.5" stroke-linecap="round" stroke-linejoin="round"/>
</g>
<g opacity="0.5">
<path d="M284.688 69.895C286.34 69.171 288.274 69.6878 289.345 71.1398" stroke="white" stroke-width="1.5" stroke-linecap="round" stroke-linejoin="round"/>
<path d="M285.546 71.3813C286.372 71.0967 287.288 71.3425 287.862 72.002" stroke="white" stroke-width="1.5" stroke-linecap="round" stroke-linejoin="round"/>
<path fill-rule="evenodd" clip-rule="evenodd" d="M285.179 77.1909C280.614 75.9674 280.26 74.4045 280.318 73.8012C280.318 73.7096 280.449 71.7058 281.974 71.9563C285.766 72.5892 282.34 74.1685 285.744 75.0811C289.149 75.993 286.971 72.9122 290.571 74.2598C292.018 74.8058 291.129 76.6067 291.083 76.6851C290.832 77.2372 289.744 78.4142 285.179 77.1909Z" stroke="white" stroke-width="1.5" stroke-linecap="round" stroke-linejoin="round"/>
</g>
<g opacity="0.2">
<path d="M356.48 18.4907C358.133 17.7667 360.067 18.2835 361.138 19.7355" stroke="white" stroke-width="1.5" stroke-linecap="round" stroke-linejoin="round"/>
<path d="M357.339 19.9771C358.165 19.6924 359.081 19.9382 359.655 20.5977" stroke="white" stroke-width="1.5" stroke-linecap="round" stroke-linejoin="round"/>
<path fill-rule="evenodd" clip-rule="evenodd" d="M356.971 25.7866C352.406 24.5631 352.053 23.0002 352.111 22.3969C352.111 22.3053 352.242 20.3015 353.767 20.5521C357.559 21.1849 354.133 22.7642 357.537 23.6768C360.942 24.5887 358.764 21.508 362.364 22.8555C363.811 23.4015 362.922 25.2024 362.876 25.2808C362.625 25.8329 361.537 27.0099 356.971 25.7866Z" stroke="white" stroke-width="1.5" stroke-linecap="round" stroke-linejoin="round"/>
</g>
<g opacity="0.7">
<path d="M338.556 42.7129C340.208 41.9889 342.142 42.5057 343.213 43.9576" stroke="white" stroke-width="1.5" stroke-linecap="round" stroke-linejoin="round"/>
<path d="M339.414 44.1992C340.24 43.9146 341.157 44.1604 341.73 44.8198" stroke="white" stroke-width="1.5" stroke-linecap="round" stroke-linejoin="round"/>
<path fill-rule="evenodd" clip-rule="evenodd" d="M339.047 50.0088C334.482 48.7853 334.128 47.2223 334.187 46.6191C334.186 46.5274 334.317 44.5237 335.842 44.7742C339.635 45.4071 336.208 46.9864 339.613 47.899C343.017 48.8108 340.839 45.7301 344.44 47.0777C345.886 47.6237 344.998 49.4246 344.951 49.5029C344.701 50.055 343.612 51.232 339.047 50.0088Z" stroke="white" stroke-width="1.5" stroke-linecap="round" stroke-linejoin="round"/>
</g>
<g opacity="0.3">
<path d="M67.1686 25.0347C68.6218 26.1036 69.1413 28.0369 68.4193 29.6904" stroke="white" stroke-width="1.5" stroke-linecap="round" stroke-linejoin="round"/>
<path d="M66.3104 26.521C66.9701 27.0943 67.2153 28.0106 66.931 28.8372" stroke="white" stroke-width="1.5" stroke-linecap="round" stroke-linejoin="round"/>
<path fill-rule="evenodd" clip-rule="evenodd" d="M61.0959 29.1078C59.873 24.5426 61.0497 23.4548 61.6014 23.2038C61.6804 23.1574 63.4813 22.2691 64.027 23.7153C65.3751 27.316 62.294 25.1381 63.206 28.5428C64.1186 31.9474 65.6975 28.5205 66.3307 32.3124C66.5811 33.8381 64.5772 33.9692 64.4863 33.9683C63.8828 34.0273 62.3193 33.6733 61.0959 29.1078Z" stroke="white" stroke-width="1.5" stroke-linecap="round" stroke-linejoin="round"/>
</g>
<g opacity="0.6">
<path d="M-2.8313 82.0347C-1.37812 83.1036 -0.858661 85.0369 -1.5806 86.6904" stroke="white" stroke-width="1.5" stroke-linecap="round" stroke-linejoin="round"/>
<path fill-rule="evenodd" clip-rule="evenodd" d="M-8.90402 86.1078C-10.127 81.5426 -8.95025 80.4548 -8.39859 80.2038C-8.31954 80.1574 -6.51865 79.2691 -5.97298 80.7153C-4.62487 84.316 -7.70595 82.1381 -6.79398 85.5428C-5.88129 88.9474 -4.30247 85.5205 -3.66924 89.3124C-3.41888 90.8381 -5.42271 90.9692 -5.51366 90.9683C-6.11716 91.0273 -7.68061 90.6733 -8.90402 86.1078Z" stroke="white" stroke-width="1.5" stroke-linecap="round" stroke-linejoin="round"/>
</g>
<g opacity="0.9">
<path d="M145.402 59.3242C146.855 60.3931 147.374 62.3265 146.652 63.98" stroke="white" stroke-width="1.5" stroke-linecap="round" stroke-linejoin="round"/>
<path d="M144.543 60.8105C145.203 61.3839 145.448 62.3002 145.164 63.1267" stroke="white" stroke-width="1.5" stroke-linecap="round" stroke-linejoin="round"/>
<path fill-rule="evenodd" clip-rule="evenodd" d="M139.329 63.3973C138.106 58.8321 139.283 57.7444 139.834 57.4934C139.913 57.447 141.714 56.5587 142.26 58.0049C143.608 61.6056 140.527 59.4277 141.439 62.8324C142.352 66.2369 143.93 62.8101 144.564 66.6019C144.814 68.1277 142.81 68.2587 142.719 68.2579C142.116 68.3168 140.552 67.9628 139.329 63.3973Z" stroke="white" stroke-width="1.5" stroke-linecap="round" stroke-linejoin="round"/>
</g>
<g opacity="0.7">
<path d="M18.0608 42.9009C19.8442 42.6292 21.5786 43.6289 22.2373 45.3086" stroke="white" stroke-width="1.5" stroke-linecap="round" stroke-linejoin="round"/>
<path d="M18.505 44.5586C19.3769 44.4975 20.1982 44.9721 20.5817 45.7575" stroke="white" stroke-width="1.5" stroke-linecap="round" stroke-linejoin="round"/>
<path fill-rule="evenodd" clip-rule="evenodd" d="M16.6469 50.0748C12.554 47.7115 12.6169 46.1102 12.8295 45.5427C12.8526 45.454 13.4979 43.5524 14.9064 44.1892C18.4057 45.782 14.6871 46.4207 17.7394 48.1833C20.7921 49.9453 19.4854 46.4058 22.6144 48.6393C23.8703 49.5411 22.5461 51.0507 22.4811 51.1144C22.0961 51.5828 20.7402 52.438 16.6469 50.0748Z" stroke="white" stroke-width="1.5" stroke-linecap="round" stroke-linejoin="round"/>
</g>
<g opacity="0.5">
<path d="M51.6875 68.895C53.3398 68.171 55.2738 68.6878 56.3448 70.1398" stroke="white" stroke-width="1.5" stroke-linecap="round" stroke-linejoin="round"/>
<path d="M52.5457 70.3813C53.3721 70.0967 54.2882 70.3425 54.8619 71.002" stroke="white" stroke-width="1.5" stroke-linecap="round" stroke-linejoin="round"/>
<path fill-rule="evenodd" clip-rule="evenodd" d="M52.1786 76.1909C47.6135 74.9674 47.2598 73.4045 47.3183 72.8012C47.3177 72.7096 47.4488 70.7058 48.9741 70.9563C52.7664 71.5892 49.3398 73.1685 52.7443 74.0811C56.1491 74.993 53.9708 71.9122 57.5712 73.2598C59.0177 73.8058 58.1293 75.6067 58.0831 75.6851C57.8324 76.2372 56.7441 77.4142 52.1786 76.1909Z" stroke="white" stroke-width="1.5" stroke-linecap="round" stroke-linejoin="round"/>
</g>
<g opacity="0.2">
<path d="M123.48 17.4907C125.133 16.7667 127.067 17.2835 128.138 18.7355" stroke="white" stroke-width="1.5" stroke-linecap="round" stroke-linejoin="round"/>
<path d="M124.339 18.9771C125.165 18.6924 126.081 18.9382 126.655 19.5977" stroke="white" stroke-width="1.5" stroke-linecap="round" stroke-linejoin="round"/>
<path fill-rule="evenodd" clip-rule="evenodd" d="M123.971 24.7866C119.406 23.5631 119.053 22.0002 119.111 21.3969C119.11 21.3053 119.242 19.3015 120.767 19.5521C124.559 20.1849 121.133 21.7642 124.537 22.6768C127.942 23.5887 125.764 20.508 129.364 21.8555C130.811 22.4015 129.922 24.2024 129.876 24.2808C129.625 24.8329 128.537 26.0099 123.971 24.7866Z" stroke="white" stroke-width="1.5" stroke-linecap="round" stroke-linejoin="round"/>
</g>
<g opacity="0.7">
<path d="M105.556 41.7129C107.208 40.9889 109.142 41.5057 110.213 42.9576" stroke="white" stroke-width="1.5" stroke-linecap="round" stroke-linejoin="round"/>
<path d="M106.414 43.1992C107.24 42.9146 108.156 43.1604 108.73 43.8198" stroke="white" stroke-width="1.5" stroke-linecap="round" stroke-linejoin="round"/>
<path fill-rule="evenodd" clip-rule="evenodd" d="M106.047 49.0088C101.482 47.7853 101.128 46.2223 101.187 45.6191C101.186 45.5274 101.317 43.5237 102.842 43.7742C106.635 44.4071 103.208 45.9864 106.613 46.899C110.017 47.8108 107.839 44.7301 111.44 46.0777C112.886 46.6237 111.998 48.4246 111.951 48.5029C111.701 49.055 110.612 50.232 106.047 49.0088Z" stroke="white" stroke-width="1.5" stroke-linecap="round" stroke-linejoin="round"/>
</g>
</g>
</g>
<defs>
<linearGradient id="paint0_linear_1417_28491" x1="-398.802" y1="121" x2="-303.705" y2="513.95" gradientUnits="userSpaceOnUse">
<stop stop-color="#FFBF08"/>
<stop offset="1" stop-color="#FF910A"/>
</linearGradient>
<linearGradient id="paint1_linear_1417_28491" x1="-398.802" y1="121" x2="-303.705" y2="513.95" gradientUnits="userSpaceOnUse">
<stop stop-color="#FFBF08"/>
<stop offset="1" stop-color="#FF910A"/>
</linearGradient>
</defs>
</svg>
