<svg width="166" height="79" viewBox="0 0 166 79" fill="none" xmlns="http://www.w3.org/2000/svg">
<path fill-rule="evenodd" clip-rule="evenodd" d="M19.4101 18.5731C15.1313 22.9906 12.4067 29.775 12.4067 37.9347C12.4067 46.2169 14.906 53.2163 19.403 58.0842C23.827 62.873 30.723 66.1874 40.7644 66.1874C49.9301 66.1874 58.5619 60.9353 65.452 53.9494C68.833 50.5215 71.6083 46.8559 73.6113 43.6172C74.7701 41.7436 75.5844 40.1522 76.1159 38.9293C75.4596 38.0999 74.6161 37.0896 73.6024 35.9495C71.2056 33.2536 67.9409 29.9252 64.0828 26.6259C56.1922 19.878 46.5837 13.9107 37.2634 12.7603C29.6029 11.8147 23.5909 14.2568 19.4101 18.5731ZM82.7288 51.6993C80.4186 55.1799 77.4848 58.894 74.0235 62.4035C66.0543 70.4834 54.5168 78.2266 40.7644 78.2266C27.8875 78.2266 17.5949 73.8689 10.5598 66.2536C3.59768 58.7173 0.367493 48.5806 0.367493 37.9347C0.367493 27.1664 3.97285 17.2066 10.7625 10.197C17.65 3.08612 27.445 -0.582159 38.7382 0.811783C51.5968 2.39894 63.428 10.2248 71.9075 17.4762C76.2345 21.1766 79.8875 24.8995 82.5998 27.9502C82.6441 28 82.6882 28.0497 82.7322 28.0994C82.8799 27.9295 83.0303 27.7577 83.1831 27.5843C86.0247 24.3608 89.8359 20.4451 94.2708 16.6227C102.841 9.23648 114.928 1.15311 127.376 0.769319C138.952 0.412389 148.62 3.88227 155.37 10.8314C162.063 17.7228 165.195 27.3225 165.195 37.9347C165.195 48.5806 161.965 58.7173 155.002 66.2536C147.967 73.8689 137.675 78.2266 124.798 78.2266C111.082 78.2266 99.5766 70.6531 91.5931 62.6146C88.0572 59.0543 85.0692 55.2658 82.7288 51.6993ZM89.4092 38.9136C89.952 40.2104 90.7956 41.889 92.0021 43.8485C94.004 47.1002 96.7686 50.741 100.135 54.1309C106.985 61.0273 115.595 66.1874 124.798 66.1874C134.839 66.1874 141.735 62.873 146.159 58.0842C150.656 53.2163 153.156 46.2169 153.156 37.9347C153.156 29.6188 150.725 23.3284 146.734 19.2195C142.799 15.1684 136.66 12.528 127.747 12.8028C119.705 13.0507 110.353 18.6552 102.131 25.7422C98.1692 29.1564 94.7459 32.6736 92.2143 35.5454C91.0672 36.8467 90.1231 37.993 89.4092 38.9136Z" fill="#FFBF08"/>
</svg>
