<svg width="388" height="254" viewBox="0 0 388 254" fill="none" xmlns="http://www.w3.org/2000/svg">
<path d="M341.019 137.686C339.76 137.686 338.529 138.059 337.482 138.758C336.435 139.457 335.619 140.45 335.137 141.612C334.656 142.774 334.53 144.052 334.775 145.286C335.021 146.52 335.627 147.653 336.517 148.542C337.408 149.431 338.542 150.037 339.777 150.282C341.012 150.528 342.292 150.402 343.455 149.921C344.618 149.439 345.613 148.624 346.312 147.578C347.012 146.533 347.385 145.303 347.385 144.045C347.383 142.359 346.712 140.743 345.518 139.551C344.325 138.358 342.707 137.688 341.019 137.686ZM341.019 148.369C340.163 148.369 339.326 148.115 338.614 147.64C337.903 147.165 337.348 146.49 337.02 145.7C336.693 144.91 336.607 144.041 336.774 143.202C336.941 142.363 337.353 141.593 337.959 140.988C338.564 140.384 339.335 139.972 340.175 139.805C341.014 139.638 341.884 139.724 342.675 140.051C343.466 140.378 344.142 140.933 344.617 141.643C345.093 142.354 345.347 143.19 345.347 144.045C345.345 145.191 344.888 146.29 344.077 147.1C343.266 147.911 342.166 148.367 341.019 148.369Z" fill="#E6EAEE"/>
<path d="M260.142 34.6812C258.923 34.9941 257.823 35.6612 256.983 36.5982C256.142 37.5352 255.598 38.7001 255.42 39.9454C255.242 41.1907 255.438 42.4606 255.982 43.5944C256.527 44.7283 257.395 45.6752 258.479 46.3155C259.562 46.9557 260.811 47.2605 262.068 47.1913C263.325 47.1221 264.534 46.682 265.541 45.9267C266.548 45.1714 267.309 44.1348 267.727 42.948C268.145 41.7611 268.201 40.4774 267.888 39.2591C267.468 37.6264 266.416 36.2274 264.964 35.3691C263.512 34.5109 261.778 34.2635 260.142 34.6812ZM262.796 45.0288C261.967 45.2415 261.093 45.2038 260.286 44.9206C259.478 44.6373 258.773 44.1211 258.26 43.4373C257.746 42.7535 257.447 41.9328 257.401 41.0789C257.354 40.2251 257.562 39.3765 257.998 38.6404C258.434 37.9044 259.079 37.3139 259.851 36.9437C260.623 36.5735 261.487 36.4402 262.334 36.5606C263.181 36.681 263.974 37.0498 264.611 37.6203C265.248 38.1908 265.702 38.9374 265.914 39.7656C266.197 40.8762 266.028 42.0538 265.443 43.0403C264.859 44.0269 263.907 44.7419 262.796 45.0288Z" fill="#E6EAEE"/>
<path d="M370.403 173.289C370.133 173.289 369.874 173.182 369.683 172.991C369.492 172.8 369.384 172.541 369.384 172.271V163.957C369.384 163.687 369.492 163.429 369.683 163.238C369.874 163.047 370.133 162.939 370.403 162.939C370.674 162.939 370.933 163.047 371.124 163.238C371.315 163.429 371.423 163.687 371.423 163.957V172.271C371.423 172.541 371.315 172.8 371.124 172.991C370.933 173.182 370.674 173.289 370.403 173.289Z" fill="#E6EAEE"/>
<path d="M374.561 169.136H366.239C365.968 169.136 365.709 169.029 365.518 168.838C365.327 168.647 365.219 168.388 365.219 168.118C365.219 167.848 365.327 167.589 365.518 167.398C365.709 167.207 365.968 167.1 366.239 167.1H374.561C374.832 167.1 375.091 167.207 375.282 167.398C375.473 167.589 375.58 167.848 375.58 168.118C375.58 168.388 375.473 168.647 375.282 168.838C375.091 169.029 374.832 169.136 374.561 169.136Z" fill="#E6EAEE"/>
<path d="M66.5787 193.039C66.0324 192.147 65.2741 191.403 64.3711 190.873C63.468 190.344 62.4482 190.045 61.4018 190.003C60.3555 189.961 59.315 190.178 58.3726 190.634C57.4301 191.09 56.6149 191.771 55.999 192.617C55.3832 193.463 54.9858 194.448 54.842 195.484C54.6983 196.521 54.8126 197.576 55.1749 198.558C55.5372 199.539 56.1363 200.416 56.9191 201.111C57.7018 201.806 58.6441 202.297 59.6624 202.541C60.1539 202.66 60.658 202.72 61.1638 202.718C62.2955 202.718 63.4069 202.418 64.3836 201.847C65.3603 201.276 66.1671 200.456 66.7208 199.47C67.2744 198.484 67.555 197.368 67.5337 196.238C67.5123 195.108 67.1897 194.004 66.5991 193.039H66.5787ZM65.3558 197.37C65.1221 198.342 64.558 199.204 63.7595 199.808C62.961 200.412 61.9776 200.72 60.977 200.681C59.9763 200.641 59.0203 200.256 58.2718 199.592C57.5234 198.927 57.0289 198.024 56.8726 197.035C56.7163 196.047 56.9079 195.036 57.4147 194.173C57.9215 193.31 58.7122 192.649 59.652 192.304C60.5917 191.958 61.6224 191.949 62.5684 192.277C63.5143 192.606 64.3169 193.252 64.8394 194.105C65.1366 194.588 65.3353 195.126 65.4239 195.686C65.5125 196.246 65.4894 196.818 65.3558 197.37Z" fill="#E6EAEE"/>
<path d="M152.817 11.4588C152.066 10.7301 151.147 10.1979 150.141 9.90927C149.134 9.62064 148.072 9.58451 147.048 9.8041C146.024 10.0237 145.07 10.4922 144.271 11.1681C143.471 11.8441 142.851 12.7065 142.464 13.6791C142.078 14.6516 141.938 15.7043 142.056 16.7437C142.174 17.7831 142.547 18.7771 143.142 19.6378C143.736 20.4984 144.534 21.1991 145.465 21.6776C146.396 22.1562 147.431 22.3979 148.478 22.3813C148.984 22.3746 149.487 22.3067 149.976 22.1791C151.072 21.8987 152.074 21.3314 152.879 20.5357C153.683 19.74 154.261 18.7447 154.552 17.6521C154.843 16.5595 154.838 15.4093 154.537 14.3198C154.235 13.2303 153.648 12.241 152.837 11.4537L152.817 11.4588ZM152.708 15.9569C152.723 16.9573 152.391 17.9322 151.768 18.7155C151.144 19.4987 150.268 20.0419 149.289 20.2524C148.31 20.4629 147.288 20.3277 146.398 19.8699C145.508 19.412 144.805 18.6598 144.408 17.7415C144.011 16.8232 143.945 15.7956 144.222 14.8339C144.499 13.8722 145.1 13.0359 145.925 12.4675C146.749 11.8991 147.745 11.6339 148.743 11.717C149.741 11.8001 150.679 12.2263 151.397 12.9231C151.805 13.3174 152.131 13.7884 152.356 14.3091C152.581 14.8297 152.701 15.3898 152.708 15.9569Z" fill="#E6EAEE"/>
<path d="M25.6852 195.734C25.5104 195.734 25.3387 195.689 25.1864 195.603C25.0341 195.517 24.9064 195.394 24.8155 195.245L20.4605 188.153C20.3319 187.923 20.2975 187.652 20.3645 187.397C20.4315 187.143 20.5947 186.924 20.8199 186.787C21.045 186.65 21.3145 186.605 21.5718 186.663C21.8291 186.72 22.0542 186.875 22.1998 187.094L26.548 194.18C26.6435 194.334 26.6961 194.51 26.7005 194.691C26.7049 194.872 26.6609 195.051 26.5729 195.209C26.485 195.368 26.3564 195.5 26.2004 195.592C26.0443 195.684 25.8665 195.733 25.6852 195.734Z" fill="#E6EAEE"/>
<path d="M113.333 68.642C113.164 68.6852 112.986 68.6843 112.818 68.6393C112.649 68.5942 112.495 68.5066 112.37 68.3847L106.389 62.5971C106.208 62.4064 106.107 62.1526 106.109 61.8893C106.11 61.6259 106.214 61.3734 106.398 61.1847C106.582 60.996 106.832 60.8858 107.096 60.8774C107.359 60.8689 107.616 60.9628 107.811 61.1393L113.783 66.9221C113.914 67.0474 114.009 67.2054 114.058 67.3797C114.107 67.554 114.109 67.7382 114.063 67.9135C114.017 68.0887 113.925 68.2486 113.797 68.3767C113.669 68.5047 113.509 68.5963 113.333 68.642Z" fill="#E6EAEE"/>
<path d="M19.9578 194.356C19.7351 194.359 19.5178 194.288 19.3395 194.155C19.1612 194.022 19.0318 193.833 18.9715 193.619C18.9111 193.405 18.9231 193.177 19.0056 192.97C19.0881 192.764 19.2365 192.59 19.4278 192.476L26.5209 188.126C26.6351 188.056 26.762 188.009 26.8943 187.988C27.0266 187.967 27.1617 187.972 27.292 188.004C27.4223 188.035 27.5451 188.091 27.6536 188.17C27.762 188.249 27.8538 188.348 27.9239 188.462C27.9939 188.576 28.0407 188.703 28.0618 188.835C28.0828 188.967 28.0775 189.102 28.0463 189.232C28.015 189.362 27.9584 189.485 27.8797 189.593C27.801 189.702 27.7017 189.793 27.5875 189.863L20.4877 194.207C20.3287 194.306 20.145 194.357 19.9578 194.356Z" fill="#E6EAEE"/>
<path d="M63.79 96.7386C63.5749 96.7965 63.3468 96.7819 63.141 96.6971C62.9352 96.6124 62.7631 96.4622 62.6515 96.2698C62.5398 96.0774 62.4948 95.8535 62.5234 95.6329C62.552 95.4122 62.6526 95.2071 62.8096 95.0493L68.5996 89.0726C68.6929 88.9765 68.8041 88.8996 68.9271 88.8464C69.05 88.7932 69.1823 88.7647 69.3162 88.7626C69.4501 88.7604 69.5832 88.7846 69.7077 88.8338C69.8323 88.8831 69.9459 88.9563 70.042 89.0494C70.1382 89.1425 70.2151 89.2536 70.2683 89.3764C70.3215 89.4993 70.3499 89.6313 70.352 89.7652C70.354 89.899 70.3297 90.0319 70.2804 90.1564C70.231 90.2808 70.1577 90.3944 70.0644 90.4905L64.2662 96.4623C64.1367 96.5974 63.9716 96.6932 63.79 96.7386Z" fill="#E6EAEE"/>
<path d="M73.0059 141.059C73.0059 141.059 90.5822 136.525 93.0416 137.59C95.5011 138.656 99.4348 155.067 98.2391 155.467C97.0433 155.868 91.3906 150.221 91.3906 150.221C91.3906 150.221 89.9911 153.017 87.7966 152.087C85.6021 151.157 83.2106 147.275 83.2106 147.275C83.2106 147.275 82.5923 149.176 80.3299 148.375C78.0675 147.574 75.0848 143.224 75.0848 143.224L73.0059 141.059Z" fill="#E2EEF3"/>
<path d="M28.9939 117.535C28.9939 117.535 19.7743 101.926 17.2809 100.928C14.7874 99.9303 0.390769 108.774 0.97506 109.9C1.55935 111.027 9.53561 111.034 9.53561 111.034C9.53561 111.034 8.54367 113.999 10.7585 114.889C12.9734 115.778 17.4032 114.726 17.4032 114.726C17.4032 114.726 16.4927 116.504 18.6601 117.535C20.8274 118.567 26.0181 117.597 26.0181 117.597L28.9939 117.535Z" fill="#E0EDF3"/>
<path d="M82.6263 128.157L67.7744 157.89C67.6697 158.101 67.5243 158.289 67.3466 158.444C67.1688 158.598 66.9622 158.716 66.7387 158.791C66.5151 158.865 66.2791 158.895 66.0441 158.878C65.809 158.861 65.5797 158.797 65.3693 158.691L18.3271 135.243C17.9037 135.03 17.5821 134.658 17.433 134.209C17.284 133.76 17.3196 133.27 17.5322 132.847L32.3908 103.113C32.6025 102.689 32.9736 102.366 33.4231 102.215C33.8725 102.064 34.3637 102.096 34.7891 102.306L81.8314 125.761C82.156 125.921 82.4237 126.177 82.5986 126.494C82.7735 126.81 82.8472 127.173 82.8097 127.533C82.793 127.751 82.7305 127.964 82.6263 128.157Z" fill="#FFD100"/>
<path d="M19.978 133.295L47.7862 130.716C48.4753 130.652 49.1686 130.78 49.7888 131.087C50.409 131.394 50.9318 131.867 51.2988 132.453L66.3069 156.397L52.5149 131.068C52.1513 130.354 51.5675 129.775 50.8494 129.417C50.1313 129.059 49.3171 128.941 48.5268 129.08L19.978 133.295Z" fill="#DA9135"/>
<path d="M82.7214 127.709L48.6966 133.301L32.7034 102.76C32.9579 102.471 33.2979 102.271 33.6741 102.188C34.0504 102.105 34.4433 102.143 34.7959 102.299L81.8382 125.754C82.173 125.945 82.4387 126.237 82.5974 126.588C82.756 126.939 82.7994 127.331 82.7214 127.709Z" fill="#FFDF4F"/>
<path d="M33.6819 104.661L47.5962 131.096C47.9108 131.727 48.4216 132.241 49.0522 132.559C49.6828 132.877 50.3994 132.982 51.0951 132.86L80.3912 128.211L50.5856 134.93C49.7923 135.156 48.943 135.078 48.2049 134.71C47.4668 134.342 46.8934 133.711 46.5974 132.942L33.6819 104.661Z" fill="#DA9135"/>
<path d="M359.662 86.1935C359.662 86.1935 369.479 70.9501 372.007 70.0542C374.534 69.1584 388.577 78.5582 387.98 79.6577C387.382 80.7572 379.385 80.4585 379.385 80.4585C379.385 80.4585 380.255 83.4516 378.026 84.2592C375.798 85.0668 371.388 83.8384 371.388 83.8384C371.388 83.8384 372.231 85.6505 370.03 86.5939C367.828 87.5373 362.678 86.3699 362.678 86.3699L359.662 86.1935Z" fill="#E0EDF3"/>
<path d="M311.356 98.7696C311.356 98.7696 293.977 93.5505 291.477 94.5143C288.976 95.478 284.404 111.726 285.579 112.16C286.755 112.595 292.638 107.233 292.638 107.233C292.638 107.233 293.922 110.077 296.151 109.235C298.379 108.393 300.907 104.606 300.907 104.606C300.907 104.606 301.45 106.534 303.74 105.821C306.029 105.109 309.175 100.874 309.175 100.874L311.356 98.7696Z" fill="#E2EEF3"/>
<path d="M357.957 70.1965L367.258 102.095C367.388 102.551 367.333 103.04 367.104 103.456C366.875 103.872 366.49 104.18 366.035 104.314L315.555 118.994C315.329 119.06 315.093 119.08 314.859 119.054C314.625 119.028 314.399 118.956 314.194 118.843C313.988 118.729 313.807 118.576 313.66 118.393C313.514 118.209 313.405 117.998 313.34 117.773L304.046 85.8743C303.975 85.6554 303.952 85.424 303.978 85.1956C304.005 84.8353 304.142 84.492 304.37 84.2118C304.599 83.9316 304.907 83.7278 305.255 83.6278L355.735 68.9477C356.083 68.8447 356.455 68.8505 356.8 68.9646C357.145 69.0786 357.446 69.2954 357.664 69.5857C357.801 69.7679 357.901 69.9756 357.957 70.1965Z" fill="#FFD100"/>
<path d="M315.446 116.456L334.109 95.695C334.571 95.1801 335.167 94.8038 335.831 94.6084C336.494 94.413 337.199 94.4062 337.867 94.5887L365.158 101.986L337.826 92.7495C337.074 92.4686 336.251 92.4378 335.479 92.6616C334.708 92.8853 334.03 93.3518 333.545 93.9915L315.446 116.456Z" fill="#DA9135"/>
<path d="M357.719 69.803L336.521 96.9913L304.032 85.4536C304.023 85.0688 304.136 84.691 304.356 84.375C304.576 84.0589 304.891 83.821 305.255 83.6957L355.735 69.0157C356.107 68.9227 356.498 68.9487 356.854 69.0899C357.21 69.2312 357.513 69.4806 357.719 69.803Z" fill="#FFDF4F"/>
<path d="M306.05 86.1325L334.232 96.116C334.892 96.3641 335.614 96.3931 336.292 96.1987C336.97 96.0043 337.568 95.5969 337.996 95.0369L356.34 71.7578L339.021 96.8693C338.592 97.573 337.915 98.0912 337.124 98.3222C336.332 98.5532 335.482 98.4804 334.741 98.1181L306.05 86.1325Z" fill="#DA9135"/>
<path d="M110.176 109.432L188.933 51.0647C190.501 49.904 192.403 49.2808 194.355 49.2882C196.307 49.2955 198.204 49.9329 199.763 51.1054L277.318 109.432H110.176Z" fill="#FFD100"/>
<path d="M274.444 108.672H113.05C110.018 108.672 107.561 111.127 107.561 114.156V216.17C107.561 219.198 110.018 221.653 113.05 221.653H274.444C277.475 221.653 279.933 219.198 279.933 216.17V114.156C279.933 111.127 277.475 108.672 274.444 108.672Z" fill="#FFD100"/>
<path d="M272.154 116.144L254.041 130.152L253.803 130.335L239.108 141.697L228.495 149.902L206.394 166.991L202.141 170.283L199.777 168.844C197.964 167.737 195.879 167.154 193.755 167.162C191.63 167.169 189.549 167.765 187.744 168.885L185.394 170.351L181.67 167.487L158.808 149.909L148.135 141.703L133.364 130.308L130.647 128.231L114.891 116.117L272.154 116.144Z" fill="white"/>
<path d="M273.859 214.052L202.141 170.283L199.777 168.844C197.964 167.737 195.879 167.154 193.755 167.162C191.63 167.169 189.549 167.765 187.744 168.885L185.394 170.351L114.905 214.058L181.671 167.487L187.541 163.415C189.518 161.944 191.917 161.149 194.382 161.149C196.847 161.149 199.247 161.944 201.224 163.415L206.394 167.018L273.859 214.052Z" fill="#DA9135"/>
<path d="M272.154 64.998H114.905V116.151H272.154V64.998Z" fill="white"/>
<path d="M254.041 83.0103H130.661V91.2156H254.041V83.0103Z" fill="#E0EDF3"/>
<path d="M254.041 102.57H130.661V110.776H254.041V102.57Z" fill="#E0EDF3"/>
<path d="M254.041 122.137V130.152L253.803 130.335H133.365L130.661 128.258V122.137H254.041Z" fill="#E0EDF3"/>
<path d="M239.108 141.697L228.495 149.902H158.809L148.135 141.697H239.108Z" fill="#E0EDF3"/>
<path d="M218.907 227.531C222.159 213.998 213.813 200.393 200.266 197.144C186.719 193.895 173.1 202.232 169.848 215.765C166.595 229.298 174.941 242.902 188.488 246.151C202.035 249.4 215.654 241.063 218.907 227.531Z" fill="#D64D3E"/>
<path d="M191.655 221.558C191.655 219.507 191.588 217.609 191.456 215.867C191.324 214.102 191.059 212.403 190.662 210.771L196.254 209.877C197.247 212.194 197.743 217.334 197.743 225.297V234H191.655V224.106V221.558Z" fill="white"/>
</svg>
