<svg width="24" height="24" viewBox="0 0 24 24" fill="none" xmlns="http://www.w3.org/2000/svg">
<path fill-rule="evenodd" clip-rule="evenodd" d="M10.9548 1.25H13.0452C14.8818 1.24999 16.3214 1.24999 17.4635 1.37373C18.6291 1.50001 19.5734 1.76232 20.3798 2.34815C20.8679 2.70281 21.2972 3.13209 21.6518 3.62023C22.2377 4.42656 22.5 5.37094 22.6263 6.53648C22.75 7.67861 22.75 9.1182 22.75 10.9547V13.0453C22.75 14.8818 22.75 16.3214 22.6263 17.4635C22.5 18.6291 22.2377 19.5734 21.6518 20.3798C21.2972 20.8679 20.8679 21.2972 20.3798 21.6518C19.5734 22.2377 18.6291 22.5 17.4635 22.6263C16.3214 22.75 14.8818 22.75 13.0453 22.75H10.9547C9.1182 22.75 7.67861 22.75 6.53648 22.6263C5.37094 22.5 4.42656 22.2377 3.62023 21.6518C3.13209 21.2972 2.70281 20.8679 2.34815 20.3798C1.76232 19.5734 1.50001 18.6291 1.37373 17.4635C1.24999 16.3214 1.24999 14.8818 1.25 13.0452V10.9548C1.24999 9.11821 1.24999 7.67861 1.37373 6.53648C1.50001 5.37094 1.76232 4.42656 2.34815 3.62023C2.70281 3.13209 3.13209 2.70281 3.62023 2.34815C4.42656 1.76232 5.37094 1.50001 6.53648 1.37373C7.67861 1.24999 9.11821 1.24999 10.9548 1.25ZM6.69805 2.865C5.66013 2.97745 5.00992 3.19259 4.50191 3.56168C4.14111 3.82382 3.82382 4.14111 3.56168 4.50191C3.19259 5.00992 2.97745 5.66013 2.865 6.69805C2.75103 7.74999 2.75 9.10843 2.75 11V13C2.75 14.8916 2.75103 16.25 2.865 17.302C2.97745 18.3399 3.19259 18.9901 3.56168 19.4981C3.82382 19.8589 4.14111 20.1762 4.50191 20.4383C5.00992 20.8074 5.66013 21.0225 6.69805 21.135C7.74999 21.249 9.10843 21.25 11 21.25H13C14.8916 21.25 16.25 21.249 17.302 21.135C18.3399 21.0225 18.9901 20.8074 19.4981 20.4383C19.8589 20.1762 20.1762 19.8589 20.4383 19.4981C20.8074 18.9901 21.0225 18.3399 21.135 17.302C21.249 16.25 21.25 14.8916 21.25 13V11C21.25 9.10843 21.249 7.74999 21.135 6.69805C21.0225 5.66013 20.8074 5.00992 20.4383 4.50191C20.1762 4.14111 19.8589 3.82382 19.4981 3.56168C18.9901 3.19259 18.3399 2.97745 17.302 2.865C16.25 2.75103 14.8916 2.75 13 2.75H11C9.10843 2.75 7.74999 2.75103 6.69805 2.865Z" fill="#222628"/>
<path d="M8.66668 11.9998C8.66668 12.6134 8.16922 13.1109 7.55557 13.1109C6.94192 13.1109 6.44446 12.6134 6.44446 11.9998C6.44446 11.3861 6.94192 10.8887 7.55557 10.8887C8.16922 10.8887 8.66668 11.3861 8.66668 11.9998Z" fill="#222628"/>
<path d="M13.1111 11.9998C13.1111 12.6134 12.6137 13.1109 12 13.1109C11.3864 13.1109 10.8889 12.6134 10.8889 11.9998C10.8889 11.3861 11.3864 10.8887 12 10.8887C12.6137 10.8887 13.1111 11.3861 13.1111 11.9998Z" fill="#222628"/>
<path d="M17.5555 11.9998C17.5555 12.6134 17.0581 13.1109 16.4444 13.1109C15.8308 13.1109 15.3333 12.6134 15.3333 11.9998C15.3333 11.3861 15.8308 10.8887 16.4444 10.8887C17.0581 10.8887 17.5555 11.3861 17.5555 11.9998Z" fill="#222628"/>
</svg>
